<svg xmlns="http://www.w3.org/2000/svg" xmlns:xlink="http://www.w3.org/1999/xlink" viewBox="0,0,256,256" width="48px" height="48px" fill-rule="nonzero"><g fill="none" fill-rule="nonzero" stroke="none" stroke-width="1" stroke-linecap="butt" stroke-linejoin="miter" stroke-miterlimit="10" stroke-dasharray="" stroke-dashoffset="0" font-family="none" font-weight="none" font-size="none" text-anchor="none" style="mix-blend-mode: normal"><g transform="scale(5.33333,5.33333)"><path d="M44,24c0,11.045 -8.955,20 -20,20c-11.045,0 -20,-8.955 -20,-20c0,-11.045 8.955,-20 20,-20c11.045,0 20,8.955 20,20z" fill="#33b19a"/><rect x="21" y="33" width="4" height="4" fill="#49fddc"/><rect x="21" y="23" width="4" height="7" fill="#49fddc"/><path d="M25,27h-4v-4h4c2.206,0 4,-1.794 4,-4c0,-2.206 -1.794,-4 -4,-4h-4v-4h4c4.411,0 8,3.589 8,8c0,4.411 -3.589,8 -8,8z" fill="#49fddc"/><rect x="21" y="23" width="4" height="4" fill="#49fff5"/></g></g></svg>