<?xml version="1.0" encoding="UTF-8" ?>
<!DOCTYPE svg PUBLIC "-//W3C//DTD SVG 1.1//EN" "http://www.w3.org/Graphics/SVG/1.1/DTD/svg11.dtd">
<svg width="609pt" height="574pt" viewBox="0 0 609 574" version="1.1" xmlns="http://www.w3.org/2000/svg">
<g id="#db3785ff">
<path fill="#db3785" opacity="1.00" d=" M 276.77 0.00 L 295.48 0.00 C 297.03 4.31 298.19 9.34 302.76 11.46 C 303.01 14.15 303.12 16.86 303.15 19.56 C 303.70 19.20 304.25 18.84 304.81 18.47 C 304.79 19.50 304.77 20.53 304.75 21.56 C 306.14 22.86 307.58 24.17 308.40 25.92 C 309.99 28.58 309.56 32.07 311.78 34.40 C 313.20 36.21 313.23 38.66 314.24 40.67 C 315.73 42.52 317.82 43.95 318.66 46.26 C 321.10 50.85 319.69 56.36 322.37 60.90 C 322.87 59.96 323.38 59.02 323.89 58.07 C 323.87 61.14 324.01 64.21 324.30 67.27 C 325.57 67.88 326.85 68.49 328.13 69.10 C 329.24 73.31 330.28 77.56 332.45 81.38 C 333.18 87.02 334.66 92.54 335.29 98.19 C 336.64 97.95 338.25 97.29 339.40 98.45 C 341.86 102.06 341.00 106.91 343.55 110.46 C 347.35 115.81 344.63 123.43 348.75 128.56 C 341.50 129.82 334.35 131.60 327.31 133.72 C 327.02 133.66 326.44 133.54 326.14 133.47 C 325.62 125.60 321.56 118.59 319.62 111.05 C 317.42 107.66 316.08 103.90 315.08 100.01 C 312.98 96.15 310.81 92.24 309.83 87.91 C 309.56 85.98 308.13 84.58 307.20 82.96 C 305.27 80.05 305.59 76.27 303.74 73.34 C 302.36 71.14 301.44 68.66 299.65 66.73 C 298.83 65.06 298.40 63.19 297.22 61.71 C 294.71 58.41 296.68 53.47 293.70 50.37 C 292.06 48.68 291.87 46.27 291.45 44.08 C 285.63 44.50 280.09 46.45 274.37 47.44 C 217.84 59.53 161.36 71.84 104.80 83.82 C 96.43 85.56 88.16 87.90 79.64 88.89 C 100.71 66.71 125.41 47.98 152.39 33.56 C 190.58 13.06 233.50 1.74 276.77 0.00 Z" />
</g>
<g id="#d03483ff">
<path fill="#d03483" opacity="1.00" d=" M 295.48 0.00 L 298.06 0.00 C 306.94 0.55 315.84 1.12 324.67 2.29 C 329.02 7.56 331.33 14.29 331.29 21.12 C 332.45 21.54 333.60 21.97 334.76 22.39 C 335.18 25.82 335.03 29.29 335.37 32.72 C 336.60 33.59 338.06 34.04 339.44 34.63 C 341.16 40.97 343.82 47.00 345.43 53.37 C 345.92 55.93 347.51 57.97 348.94 60.07 C 350.27 63.38 349.08 67.53 351.75 70.29 C 354.81 73.65 352.47 79.10 355.84 82.29 C 358.40 85.09 355.74 89.72 358.56 92.43 C 362.52 96.75 362.54 102.91 364.97 107.99 C 366.25 110.67 365.61 113.78 366.51 116.54 C 368.63 119.11 369.37 122.37 370.75 125.33 C 364.92 125.97 359.08 126.61 353.32 127.72 C 351.79 127.99 350.27 128.27 348.75 128.56 C 344.63 123.43 347.35 115.81 343.55 110.46 C 341.00 106.91 341.86 102.06 339.40 98.45 C 338.25 97.29 336.64 97.95 335.29 98.19 C 334.66 92.54 333.18 87.02 332.45 81.38 C 330.28 77.56 329.24 73.31 328.13 69.10 C 326.85 68.49 325.57 67.88 324.30 67.27 C 324.01 64.21 323.87 61.14 323.89 58.07 C 323.38 59.02 322.87 59.96 322.37 60.90 C 319.69 56.36 321.10 50.85 318.66 46.26 C 317.82 43.95 315.73 42.52 314.24 40.67 C 313.23 38.66 313.20 36.21 311.78 34.40 C 309.56 32.07 309.99 28.58 308.40 25.92 C 307.58 24.17 306.14 22.86 304.75 21.56 C 304.77 20.53 304.79 19.50 304.81 18.47 C 304.25 18.84 303.70 19.20 303.15 19.56 C 303.12 16.86 303.01 14.15 302.76 11.46 C 298.19 9.34 297.03 4.31 295.48 0.00 Z" />
</g>
<g id="#c43180ff">
<path fill="#c43180" opacity="1.00" d=" M 324.67 2.29 C 341.69 4.50 358.51 8.23 374.86 13.46 C 375.52 16.88 375.81 20.51 377.62 23.58 C 381.01 29.05 382.10 35.60 382.04 41.95 C 385.73 46.59 387.25 52.37 388.80 58.00 C 389.07 60.03 390.77 61.25 391.78 62.89 C 393.10 66.92 391.54 71.44 393.57 75.28 C 395.99 79.99 396.15 85.48 398.93 90.05 C 400.29 96.35 402.61 102.44 403.22 108.90 C 403.77 113.80 406.07 118.23 407.29 122.95 C 395.11 123.75 382.89 123.98 370.75 125.33 C 369.37 122.37 368.63 119.11 366.51 116.54 C 365.61 113.78 366.25 110.67 364.97 107.99 C 362.54 102.91 362.52 96.75 358.56 92.43 C 355.74 89.72 358.40 85.09 355.84 82.29 C 352.47 79.10 354.81 73.65 351.75 70.29 C 349.08 67.53 350.27 63.38 348.94 60.07 C 347.51 57.97 345.92 55.93 345.43 53.37 C 343.82 47.00 341.16 40.97 339.44 34.63 C 338.06 34.04 336.60 33.59 335.37 32.72 C 335.03 29.29 335.18 25.82 334.76 22.39 C 333.60 21.97 332.45 21.54 331.29 21.12 C 331.33 14.29 329.02 7.56 324.67 2.29 Z" />
</g>
<g id="#b72d7eff">
<path fill="#b72d7e" opacity="1.00" d=" M 374.86 13.46 C 431.55 31.50 482.35 67.73 517.65 115.64 C 491.55 118.86 465.25 119.84 439.02 121.39 C 428.44 121.86 417.87 122.45 407.29 122.95 C 406.07 118.23 403.77 113.80 403.22 108.90 C 402.61 102.44 400.29 96.35 398.93 90.05 C 396.15 85.48 395.99 79.99 393.57 75.28 C 391.54 71.44 393.10 66.92 391.78 62.89 C 390.77 61.25 389.07 60.03 388.80 58.00 C 387.25 52.37 385.73 46.59 382.04 41.95 C 382.10 35.60 381.01 29.05 377.62 23.58 C 375.81 20.51 375.52 16.88 374.86 13.46 Z" />
</g>
<g id="#e43a87ff">
<path fill="#e43a87" opacity="1.00" d=" M 274.37 47.44 C 280.09 46.45 285.63 44.50 291.45 44.08 C 291.87 46.27 292.06 48.68 293.70 50.37 C 296.68 53.47 294.71 58.41 297.22 61.71 C 298.40 63.19 298.83 65.06 299.65 66.73 C 301.44 68.66 302.36 71.14 303.74 73.34 C 305.59 76.27 305.27 80.05 307.20 82.96 C 308.13 84.58 309.56 85.98 309.83 87.91 C 310.81 92.24 312.98 96.15 315.08 100.01 C 316.08 103.90 317.42 107.66 319.62 111.05 C 321.56 118.59 325.62 125.60 326.14 133.47 C 318.07 131.42 309.82 130.06 301.53 129.29 C 300.85 125.82 298.13 123.33 297.05 120.03 C 295.71 116.14 294.41 112.21 292.52 108.54 C 276.71 111.43 261.05 115.12 245.33 118.49 C 176.48 133.19 107.69 148.14 38.83 162.81 C 35.12 163.74 31.36 164.49 27.55 164.94 C 40.63 136.99 58.35 111.23 79.64 88.89 C 88.16 87.90 96.43 85.56 104.80 83.82 C 161.36 71.84 217.84 59.53 274.37 47.44 Z" />
</g>
<g id="#ff487fff">
<path fill="#ff487f" opacity="1.00" d=" M 571.64 103.56 C 584.98 98.64 597.36 91.44 608.83 83.10 C 608.65 89.42 608.06 95.76 606.53 101.91 C 599.37 106.17 592.51 110.91 585.77 115.80 C 572.67 124.72 559.24 133.14 546.39 142.42 C 532.45 151.80 518.29 160.86 504.60 170.60 C 490.29 180.29 475.68 189.53 461.64 199.60 C 448.23 208.51 434.75 217.30 421.60 226.59 C 408.71 235.40 395.43 243.64 382.78 252.79 C 367.33 263.37 351.32 273.16 336.39 284.49 C 323.06 279.32 308.99 276.13 294.76 274.94 C 309.78 263.67 326.09 254.23 341.25 243.15 C 352.62 235.52 364.05 228.00 375.38 220.32 C 388.04 211.23 401.29 203.00 414.14 194.18 C 424.27 186.83 434.88 180.20 445.20 173.13 C 456.26 165.94 466.90 158.13 477.98 150.97 C 494.07 140.48 509.65 129.24 525.80 118.84 C 528.17 117.35 530.35 115.56 532.37 113.62 C 545.71 111.37 558.97 108.36 571.64 103.56 Z" />
</g>
<g id="#fe438aff">
<path fill="#fe438a" opacity="1.00" d=" M 585.77 115.80 C 592.51 110.91 599.37 106.17 606.53 101.91 C 603.41 114.92 597.07 127.14 588.17 137.13 C 578.09 148.62 564.86 156.93 550.84 162.80 C 557.08 170.76 562.65 179.23 567.90 187.86 C 561.60 191.83 555.40 195.94 549.40 200.34 C 534.14 210.80 518.48 220.67 503.40 231.39 C 487.56 241.82 471.90 252.49 456.25 263.18 C 446.51 269.85 436.43 276.00 426.94 283.00 C 412.10 293.10 396.87 302.62 382.43 313.28 C 369.09 300.89 353.35 291.10 336.39 284.49 C 351.32 273.16 367.33 263.37 382.78 252.79 C 395.43 243.64 408.71 235.40 421.60 226.59 C 434.75 217.30 448.23 208.51 461.64 199.60 C 475.68 189.53 490.29 180.29 504.60 170.60 C 518.29 160.86 532.45 151.80 546.39 142.42 C 559.24 133.14 572.67 124.72 585.77 115.80 Z" />
</g>
<g id="#ed3d88ff">
<path fill="#ed3d88" opacity="1.00" d=" M 245.33 118.49 C 261.05 115.12 276.71 111.43 292.52 108.54 C 294.41 112.21 295.71 116.14 297.05 120.03 C 298.13 123.33 300.85 125.82 301.53 129.29 C 269.00 126.35 235.62 133.73 207.49 150.37 C 185.29 163.36 166.39 181.87 152.83 203.73 C 145.96 204.24 139.30 206.14 132.57 207.51 C 92.77 216.05 52.95 224.53 13.18 233.24 C 10.55 233.81 7.88 234.21 5.21 234.59 C 9.60 210.54 17.14 187.06 27.55 164.94 C 31.36 164.49 35.12 163.74 38.83 162.81 C 107.69 148.14 176.48 133.19 245.33 118.49 Z" />
</g>
<g id="#ff4f6fff">
<path fill="#ff4f6f" opacity="1.00" d=" M 517.65 115.64 C 522.57 115.08 527.48 114.38 532.37 113.62 C 530.35 115.56 528.17 117.35 525.80 118.84 C 509.65 129.24 494.07 140.48 477.98 150.97 C 466.90 158.13 456.26 165.94 445.20 173.13 C 434.88 180.20 424.27 186.83 414.14 194.18 C 401.29 203.00 388.04 211.23 375.38 220.32 C 364.05 228.00 352.62 235.52 341.25 243.15 C 326.09 254.23 309.78 263.67 294.76 274.94 C 287.53 274.22 280.26 274.60 273.01 274.49 C 262.00 274.60 250.68 275.77 240.62 280.55 C 231.51 284.76 223.93 291.59 217.23 298.94 C 212.11 293.64 208.44 287.07 206.22 280.08 C 222.36 267.70 239.81 257.15 256.52 245.59 C 270.80 235.42 285.79 226.28 300.05 216.08 C 316.25 204.87 332.98 194.44 349.00 182.98 C 361.99 174.34 375.06 165.81 387.80 156.80 C 400.09 148.43 412.74 140.59 424.76 131.82 C 429.51 128.34 435.04 125.84 439.02 121.39 C 465.25 119.84 491.55 118.86 517.65 115.64 Z" />
</g>
<g id="#ff565dff">
<path fill="#ff565d" opacity="1.00" d=" M 407.29 122.95 C 417.87 122.45 428.44 121.86 439.02 121.39 C 435.04 125.84 429.51 128.34 424.76 131.82 C 412.74 140.59 400.09 148.43 387.80 156.80 C 375.06 165.81 361.99 174.34 349.00 182.98 C 332.98 194.44 316.25 204.87 300.05 216.08 C 285.79 226.28 270.80 235.42 256.52 245.59 C 239.81 257.15 222.36 267.70 206.22 280.08 C 201.38 264.35 203.93 246.93 211.62 232.55 C 219.86 217.07 233.42 204.96 248.68 196.61 C 257.95 191.53 267.83 187.59 278.00 184.70 C 277.99 182.61 277.95 180.51 278.04 178.42 C 281.64 177.24 284.73 175.04 287.78 172.87 C 302.19 163.30 316.33 153.33 330.79 143.84 C 338.37 138.57 346.57 134.07 353.32 127.72 C 359.08 126.61 364.92 125.97 370.75 125.33 C 382.89 123.98 395.11 123.75 407.29 122.95 M 314.53 166.77 C 308.62 170.25 303.22 175.89 302.54 183.02 C 302.17 188.00 306.46 192.01 311.13 192.73 C 318.20 193.92 325.52 192.61 332.31 190.54 C 344.69 186.65 354.62 176.43 358.59 164.14 C 352.64 162.00 346.21 161.86 339.95 161.61 C 331.30 161.68 322.22 162.44 314.53 166.77 Z" />
</g>
<g id="#ff5c51ff">
<path fill="#ff5c51" opacity="1.00" d=" M 348.75 128.56 C 350.27 128.27 351.79 127.99 353.32 127.72 C 346.57 134.07 338.37 138.57 330.79 143.84 C 316.33 153.33 302.19 163.30 287.78 172.87 C 284.73 175.04 281.64 177.24 278.04 178.42 C 278.99 168.47 284.49 159.45 291.74 152.78 C 301.74 143.52 314.48 137.90 327.31 133.72 C 334.35 131.60 341.50 129.82 348.75 128.56 Z" />
</g>
<g id="#f24184ff">
<path fill="#f24184" opacity="1.00" d=" M 549.40 200.34 C 555.40 195.94 561.60 191.83 567.90 187.86 C 575.92 201.30 582.93 215.34 588.79 229.85 C 583.82 234.34 577.90 237.57 572.43 241.39 C 556.70 251.59 541.47 262.54 525.79 272.82 C 510.70 282.66 496.13 293.26 480.97 302.99 C 463.57 314.97 445.98 326.66 428.41 338.39 C 422.70 342.14 417.53 346.81 411.16 349.46 C 403.45 336.07 393.80 323.76 382.43 313.28 C 396.87 302.62 412.10 293.10 426.94 283.00 C 436.43 276.00 446.51 269.85 456.25 263.18 C 471.90 252.49 487.56 241.82 503.40 231.39 C 518.48 220.67 534.14 210.80 549.40 200.34 Z" />
</g>
<g id="#f8418bff">
<path fill="#f8418b" opacity="1.00" d=" M 132.57 207.51 C 139.30 206.14 145.96 204.24 152.83 203.73 C 138.75 226.46 130.57 252.81 129.40 279.54 C 125.30 279.45 121.33 280.55 117.37 281.46 C 83.93 288.71 50.44 295.69 17.02 303.04 C 11.67 304.13 6.23 304.99 1.16 307.10 C -0.50 282.88 0.81 258.46 5.21 234.59 C 7.88 234.21 10.55 233.81 13.18 233.24 C 52.95 224.53 92.77 216.05 132.57 207.51 Z" />
</g>
<g id="#e6407eff">
<path fill="#e6407e" opacity="1.00" d=" M 588.79 229.85 C 595.87 247.18 601.11 265.25 604.46 283.66 C 601.41 285.04 598.55 286.80 595.85 288.77 C 580.26 299.18 564.89 309.91 549.23 320.21 C 538.70 326.94 528.72 334.47 518.18 341.18 C 509.32 347.36 500.03 352.90 491.38 359.38 C 477.09 369.12 462.47 378.37 448.39 388.42 C 442.29 392.41 436.40 396.72 430.07 400.34 C 428.04 390.28 425.26 380.35 421.43 370.82 C 418.49 363.48 415.12 356.30 411.16 349.46 C 417.53 346.81 422.70 342.14 428.41 338.39 C 445.98 326.66 463.57 314.97 480.97 302.99 C 496.13 293.26 510.70 282.66 525.79 272.82 C 541.47 262.54 556.70 251.59 572.43 241.39 C 577.90 237.57 583.82 234.34 588.79 229.85 Z" />
</g>
<g id="#ff448aff">
<path fill="#ff448a" opacity="1.00" d=" M 117.37 281.46 C 121.33 280.55 125.30 279.45 129.40 279.54 C 128.83 291.63 129.66 303.80 131.87 315.71 C 129.56 316.47 127.23 317.25 124.84 317.74 C 85.17 326.01 45.63 334.89 5.95 343.11 C 3.59 331.22 2.02 319.18 1.16 307.10 C 6.23 304.99 11.67 304.13 17.02 303.04 C 50.44 295.69 83.93 288.71 117.37 281.46 Z" />
</g>
<g id="#d93e76ff">
<path fill="#d93e76" opacity="1.00" d=" M 595.85 288.77 C 598.55 286.80 601.41 285.04 604.46 283.66 C 611.52 322.18 608.67 362.54 595.50 399.47 C 590.13 381.05 580.50 363.80 567.44 349.73 C 563.19 369.10 556.75 387.97 548.55 406.01 C 543.17 408.09 538.88 412.01 534.18 415.20 C 520.66 424.32 506.87 433.05 493.61 442.54 C 481.80 450.42 469.99 458.29 458.19 466.17 C 450.07 472.16 441.52 477.54 433.18 483.21 C 431.09 484.62 428.87 485.82 426.62 486.95 C 429.94 475.20 432.20 463.13 432.97 450.94 C 433.82 434.03 433.37 416.98 430.07 400.34 C 436.40 396.72 442.29 392.41 448.39 388.42 C 462.47 378.37 477.09 369.12 491.38 359.38 C 500.03 352.90 509.32 347.36 518.18 341.18 C 528.72 334.47 538.70 326.94 549.23 320.21 C 564.89 309.91 580.26 299.18 595.85 288.77 Z" />
</g>
<g id="#ff4783ff">
<path fill="#ff4783" opacity="1.00" d=" M 124.84 317.74 C 127.23 317.25 129.56 316.47 131.87 315.71 C 133.89 326.76 137.16 337.57 141.49 347.93 C 135.49 349.83 129.27 350.80 123.16 352.22 C 86.87 359.84 50.69 367.98 14.37 375.48 C 10.96 364.86 8.12 354.05 5.95 343.11 C 45.63 334.89 85.17 326.01 124.84 317.74 Z" />
</g>
<g id="#ff4a7cff">
<path fill="#ff4a7c" opacity="1.00" d=" M 123.16 352.22 C 129.27 350.80 135.49 349.83 141.49 347.93 C 146.17 359.12 152.19 369.75 159.29 379.58 C 136.75 384.99 113.94 389.25 91.35 394.43 C 76.19 397.49 61.13 401.00 45.99 404.12 C 39.79 405.57 33.48 406.59 27.36 408.38 C 22.35 397.70 18.03 386.69 14.37 375.48 C 50.69 367.98 86.87 359.84 123.16 352.22 Z" />
</g>
<g id="#d91f33ff">
<path fill="#d91f33" opacity="1.00" d=" M 421.43 370.82 C 425.26 380.35 428.04 390.28 430.07 400.34 C 433.37 416.98 433.82 434.03 432.97 450.94 C 432.57 451.41 431.76 452.36 431.36 452.83 C 429.20 448.80 428.73 444.18 426.89 440.04 C 422.04 432.15 419.23 423.23 414.78 415.14 C 409.79 408.49 406.90 400.61 403.98 392.91 C 409.96 385.68 415.87 378.38 421.43 370.82 Z" />
</g>
<g id="#ff4d74ff">
<path fill="#ff4d74" opacity="1.00" d=" M 91.35 394.43 C 113.94 389.25 136.75 384.99 159.29 379.58 C 168.36 392.08 179.26 403.26 191.53 412.64 C 184.33 414.67 176.95 415.97 169.65 417.56 C 142.18 423.66 114.62 429.35 87.13 435.32 C 73.91 438.40 60.45 440.50 47.39 444.24 C 39.85 432.79 33.19 420.78 27.36 408.38 C 33.48 406.59 39.79 405.57 45.99 404.12 C 61.13 401.00 76.19 397.49 91.35 394.43 Z" />
</g>
<g id="#e12a3bff">
<path fill="#e12a3b" opacity="1.00" d=" M 382.02 413.56 C 390.18 407.63 397.20 400.34 403.98 392.91 C 406.90 400.61 409.79 408.49 414.78 415.14 C 419.23 423.23 422.04 432.15 426.89 440.04 C 428.73 444.18 429.20 448.80 431.36 452.83 C 431.76 452.36 432.57 451.41 432.97 450.94 C 432.20 463.13 429.94 475.20 426.62 486.95 C 424.84 492.53 422.92 498.07 420.69 503.49 C 415.90 497.51 411.69 490.96 409.22 483.67 C 407.78 479.12 403.74 475.84 402.93 471.05 C 402.17 467.07 399.98 463.61 398.72 459.81 C 398.10 455.22 398.25 450.50 396.95 446.02 C 396.03 443.79 394.02 442.21 393.12 439.97 C 390.14 430.88 386.51 422.02 382.02 413.56 Z" />
</g>
<g id="#cc3d6fff">
<path fill="#cc3d6f" opacity="1.00" d=" M 534.18 415.20 C 538.88 412.01 543.17 408.09 548.55 406.01 C 516.62 476.58 454.82 533.01 381.46 558.00 C 383.70 555.92 385.95 553.84 388.26 551.83 C 395.25 545.43 401.13 537.93 406.49 530.14 C 412.09 521.76 416.97 512.87 420.69 503.49 C 422.92 498.07 424.84 492.53 426.62 486.95 C 428.87 485.82 431.09 484.62 433.18 483.21 C 441.52 477.54 450.07 472.16 458.19 466.17 C 469.99 458.29 481.80 450.42 493.61 442.54 C 506.87 433.05 520.66 424.32 534.18 415.20 Z" />
</g>
<g id="#ff506dff">
<path fill="#ff506d" opacity="1.00" d=" M 169.65 417.56 C 176.95 415.97 184.33 414.67 191.53 412.64 C 205.73 423.46 221.75 431.86 238.72 437.40 C 236.67 438.27 234.59 439.09 232.41 439.57 C 204.65 445.39 176.95 451.48 149.19 457.31 C 122.99 463.43 96.48 468.17 70.37 474.64 C 62.06 465.01 54.36 454.87 47.39 444.24 C 60.45 440.50 73.91 438.40 87.13 435.32 C 114.62 429.35 142.18 423.66 169.65 417.56 Z" />
</g>
<g id="#e93844ff">
<path fill="#e93844" opacity="1.00" d=" M 350.73 431.66 C 361.77 426.78 372.38 420.85 382.02 413.56 C 386.51 422.02 390.14 430.88 393.12 439.97 C 394.02 442.21 396.03 443.79 396.95 446.02 C 398.25 450.50 398.10 455.22 398.72 459.81 C 399.98 463.61 402.17 467.07 402.93 471.05 C 403.74 475.84 407.78 479.12 409.22 483.67 C 411.69 490.96 415.90 497.51 420.69 503.49 C 416.97 512.87 412.09 521.76 406.49 530.14 C 404.09 523.81 401.55 517.20 396.68 512.32 C 394.82 510.31 394.03 507.62 392.62 505.33 C 391.29 503.37 389.20 502.08 388.01 500.02 C 386.43 497.22 385.18 494.25 383.60 491.45 C 381.87 488.29 380.82 484.82 379.20 481.62 C 377.64 479.58 375.23 478.27 374.03 475.92 C 369.63 468.12 362.78 461.81 359.62 453.32 C 356.13 446.33 353.31 439.03 350.73 431.66 Z" />
</g>
<g id="#f3454fff">
<path fill="#f3454f" opacity="1.00" d=" M 325.83 440.23 C 334.35 438.06 342.68 435.18 350.73 431.66 C 353.31 439.03 356.13 446.33 359.62 453.32 C 362.78 461.81 369.63 468.12 374.03 475.92 C 375.23 478.27 377.64 479.58 379.20 481.62 C 380.82 484.82 381.87 488.29 383.60 491.45 C 381.30 492.85 383.50 495.25 383.08 497.25 C 382.29 500.70 382.47 504.25 382.41 507.76 C 378.06 506.29 373.85 503.78 370.91 500.19 C 370.23 503.22 369.30 506.34 370.25 509.43 C 369.73 509.79 368.70 510.52 368.18 510.88 C 368.87 512.14 369.58 513.38 370.35 514.60 C 369.81 514.62 368.72 514.66 368.17 514.68 C 366.53 511.01 363.35 508.61 359.60 507.38 C 359.84 508.89 360.09 510.40 360.36 511.91 C 356.39 514.65 351.46 513.46 347.12 512.55 C 344.37 506.99 340.49 501.57 340.23 495.18 C 339.82 492.53 337.26 490.84 336.67 488.24 C 336.89 487.85 337.33 487.07 337.55 486.68 C 335.44 482.31 339.21 478.70 341.21 475.19 C 341.14 472.15 338.93 469.56 338.79 466.47 C 336.90 464.49 335.24 462.31 334.55 459.62 C 333.69 456.26 331.08 453.68 330.01 450.49 C 330.71 446.50 327.95 443.28 325.83 440.23 Z" />
</g>
<g id="#ff5463ff">
<path fill="#ff5463" opacity="1.00" d=" M 232.41 439.57 C 234.59 439.09 236.67 438.27 238.72 437.40 C 259.05 443.91 280.68 446.37 301.94 444.35 C 303.58 448.68 305.74 452.84 306.44 457.47 C 306.56 459.78 308.61 460.79 310.39 461.74 C 310.58 463.81 310.66 465.90 311.14 467.94 C 311.51 470.09 313.81 470.86 315.30 472.10 C 315.20 475.27 314.83 478.48 315.53 481.62 C 256.95 494.48 198.22 506.71 139.63 519.56 C 134.57 520.63 129.39 521.25 124.55 523.17 C 104.54 509.36 86.26 493.03 70.37 474.64 C 96.48 468.17 122.99 463.43 149.19 457.31 C 176.95 451.48 204.65 445.39 232.41 439.57 Z" />
</g>
<g id="#f94d5aff">
<path fill="#f94d5a" opacity="1.00" d=" M 301.94 444.35 C 309.99 443.56 317.99 442.25 325.83 440.23 C 327.95 443.28 330.71 446.50 330.01 450.49 C 331.08 453.68 333.69 456.26 334.55 459.62 C 335.24 462.31 336.90 464.49 338.79 466.47 C 338.93 469.56 341.14 472.15 341.21 475.19 C 339.21 478.70 335.44 482.31 337.55 486.68 C 337.33 487.07 336.89 487.85 336.67 488.24 C 335.26 482.52 330.62 478.61 327.29 474.02 C 326.70 475.75 326.38 477.55 326.20 479.37 C 325.54 479.23 324.89 479.09 324.24 478.97 C 323.17 479.91 322.10 480.86 321.03 481.81 C 319.11 478.59 318.02 474.78 315.30 472.10 C 313.81 470.86 311.51 470.09 311.14 467.94 C 310.66 465.90 310.58 463.81 310.39 461.74 C 308.61 460.79 306.56 459.78 306.44 457.47 C 305.74 452.84 303.58 448.68 301.94 444.35 Z" />
</g>
<g id="#ff5858ff">
<path fill="#ff5858" opacity="1.00" d=" M 315.30 472.10 C 318.02 474.78 319.11 478.59 321.03 481.81 C 322.10 480.86 323.17 479.91 324.24 478.97 C 324.89 479.09 325.54 479.23 326.20 479.37 C 326.38 477.55 326.70 475.75 327.29 474.02 C 330.62 478.61 335.26 482.52 336.67 488.24 C 337.26 490.84 339.82 492.53 340.23 495.18 C 340.49 501.57 344.37 506.99 347.12 512.55 C 345.81 512.51 344.50 512.56 343.20 512.62 C 343.40 513.60 343.60 514.59 343.81 515.59 C 342.80 515.12 341.79 514.66 340.79 514.21 C 338.18 517.28 338.34 522.04 340.86 525.10 C 342.14 526.31 342.08 528.12 342.32 529.72 C 341.46 530.62 340.62 531.54 339.78 532.47 C 340.00 533.68 340.23 534.89 340.46 536.12 C 320.30 541.10 299.86 544.94 279.59 549.47 C 261.20 553.52 242.76 557.30 224.36 561.34 C 220.67 562.04 216.91 562.62 213.45 564.17 C 181.73 555.81 151.52 541.82 124.55 523.17 C 129.39 521.25 134.57 520.63 139.63 519.56 C 198.22 506.71 256.95 494.48 315.53 481.62 C 314.83 478.48 315.20 475.27 315.30 472.10 Z" />
</g>
<g id="#f14644ff">
<path fill="#f14644" opacity="1.00" d=" M 383.08 497.25 C 383.50 495.25 381.30 492.85 383.60 491.45 C 385.18 494.25 386.43 497.22 388.01 500.02 C 389.20 502.08 391.29 503.37 392.62 505.33 C 394.03 507.62 394.82 510.31 396.68 512.32 C 401.55 517.20 404.09 523.81 406.49 530.14 C 401.13 537.93 395.25 545.43 388.26 551.83 C 385.14 542.46 378.12 534.75 375.85 525.04 C 374.55 521.31 372.56 517.86 370.35 514.60 C 369.58 513.38 368.87 512.14 368.18 510.88 C 368.70 510.52 369.73 509.79 370.25 509.43 C 369.30 506.34 370.23 503.22 370.91 500.19 C 373.85 503.78 378.06 506.29 382.41 507.76 C 382.47 504.25 382.29 500.70 383.08 497.25 Z" />
</g>
<g id="#f9524bff">
<path fill="#f9524b" opacity="1.00" d=" M 359.60 507.38 C 363.35 508.61 366.53 511.01 368.17 514.68 C 368.72 514.66 369.81 514.62 370.35 514.60 C 372.56 517.86 374.55 521.31 375.85 525.04 C 378.12 534.75 385.14 542.46 388.26 551.83 C 385.95 553.84 383.70 555.92 381.46 558.00 C 374.26 560.58 366.93 562.78 359.53 564.69 C 357.32 560.48 355.17 556.24 353.07 551.99 C 349.46 544.58 344.40 537.81 342.32 529.72 C 342.08 528.12 342.14 526.31 340.86 525.10 C 338.34 522.04 338.18 517.28 340.79 514.21 C 341.79 514.66 342.80 515.12 343.81 515.59 C 343.60 514.59 343.40 513.60 343.20 512.62 C 344.50 512.56 345.81 512.51 347.12 512.55 C 351.46 513.46 356.39 514.65 360.36 511.91 C 360.09 510.40 359.84 508.89 359.60 507.38 Z" />
</g>
<g id="#ff5c50ff">
<path fill="#ff5c50" opacity="1.00" d=" M 342.32 529.72 C 344.40 537.81 349.46 544.58 353.07 551.99 C 355.17 556.24 357.32 560.48 359.53 564.69 C 311.86 576.97 261.01 576.88 213.45 564.17 C 216.91 562.62 220.67 562.04 224.36 561.34 C 242.76 557.30 261.20 553.52 279.59 549.47 C 299.86 544.94 320.30 541.10 340.46 536.12 C 340.23 534.89 340.00 533.68 339.78 532.47 C 340.62 531.54 341.46 530.62 342.32 529.72 Z" />
</g>
</svg>
