<?xml version="1.0" encoding="UTF-8" ?>
<!DOCTYPE svg PUBLIC "-//W3C//DTD SVG 1.1//EN" "http://www.w3.org/Graphics/SVG/1.1/DTD/svg11.dtd">
<svg width="2061pt" height="622pt" viewBox="0 0 2061 622" version="1.1" xmlns="http://www.w3.org/2000/svg">
<g id="#6e0172ff">
<path fill="#6e0172" opacity="1.00" d=" M 1125.13 0.00 L 1227.20 0.00 C 1227.30 84.74 1227.24 169.49 1227.23 254.23 C 1259.48 210.03 1291.65 165.78 1323.83 121.52 C 1354.69 121.51 1385.55 121.43 1416.41 121.56 C 1376.71 176.19 1336.97 230.79 1297.19 285.36 C 1336.77 340.07 1376.68 394.56 1416.33 449.23 C 1385.49 449.30 1354.66 449.20 1323.84 449.27 C 1291.59 405.12 1259.46 360.88 1227.29 316.68 C 1227.18 360.70 1227.30 404.72 1227.23 448.75 C 1203.49 448.75 1179.75 448.74 1156.02 448.75 C 1155.97 316.80 1156.02 184.84 1155.99 52.88 C 1145.66 49.16 1135.33 45.43 1125.00 41.68 C 1125.07 27.79 1124.83 13.89 1125.13 0.00 Z" />
<path fill="#6e0172" opacity="1.00" d=" M 1590.14 0.00 L 1692.20 0.00 C 1692.21 9.31 1692.43 18.62 1692.06 27.92 C 1691.72 56.62 1692.37 85.31 1692.25 114.00 C 1692.24 225.58 1692.27 337.16 1692.24 448.74 C 1668.49 448.76 1644.75 448.74 1621.02 448.75 C 1620.97 316.80 1621.02 184.84 1620.99 52.88 C 1610.65 49.20 1600.34 45.44 1590.02 41.72 C 1590.06 27.81 1589.83 13.90 1590.14 0.00 Z" />
<path fill="#6e0172" opacity="1.00" d=" M 1505.11 12.35 C 1520.74 8.67 1538.18 15.51 1546.84 29.08 C 1554.10 39.85 1555.32 54.32 1550.31 66.25 C 1543.89 82.19 1526.16 92.53 1509.12 90.13 C 1490.55 88.30 1474.91 71.60 1474.42 52.93 C 1473.00 34.26 1486.82 16.12 1505.11 12.35 Z" />
<path fill="#6e0172" opacity="1.00" d=" M 829.97 125.73 C 863.54 122.87 897.24 121.74 930.92 121.50 C 952.78 121.61 974.80 123.34 996.01 128.91 C 1012.37 133.19 1028.30 139.88 1041.88 150.09 C 1058.99 162.81 1071.39 181.41 1077.21 201.87 C 1081.96 218.11 1083.56 235.13 1083.25 252.00 C 1083.24 300.31 1083.26 348.63 1083.24 396.94 C 1093.64 400.75 1104.06 404.49 1114.49 408.22 C 1114.47 422.08 1114.59 435.93 1114.43 449.79 C 1081.77 449.64 1049.11 449.88 1016.45 449.67 C 1016.57 431.64 1016.45 413.61 1016.52 395.58 C 1001.07 423.15 974.43 444.17 944.06 452.87 C 926.58 458.11 908.09 459.13 889.97 457.76 C 870.70 456.26 851.44 451.24 834.80 441.21 C 816.68 430.48 802.55 413.03 796.27 392.89 C 791.16 376.56 790.38 359.07 792.56 342.16 C 794.82 324.69 802.95 307.94 816.01 296.01 C 828.21 284.45 843.54 276.68 859.46 271.64 C 880.95 264.81 903.52 261.95 926.01 261.25 C 954.00 261.25 982.00 261.26 1009.99 261.25 C 1010.20 245.25 1010.31 228.50 1003.29 213.73 C 997.88 201.71 987.48 192.14 975.05 187.77 C 958.13 181.33 939.72 183.15 922.02 183.24 C 891.33 183.89 860.65 185.37 830.01 187.28 C 829.96 166.77 830.05 146.25 829.97 125.73 M 898.90 300.90 C 885.14 307.56 874.37 320.24 870.39 335.04 C 866.46 349.59 867.06 365.69 873.57 379.41 C 880.80 394.32 895.06 405.27 911.08 409.21 C 928.19 413.45 946.63 413.15 963.44 407.67 C 975.60 403.93 986.37 396.15 993.92 385.94 C 1005.29 371.22 1008.99 352.26 1009.91 334.09 C 1010.12 320.57 1009.94 307.04 1010.00 293.51 C 986.34 293.49 962.67 293.50 939.01 293.50 C 925.35 293.17 911.28 294.78 898.90 300.90 Z" />
<path fill="#6e0172" opacity="1.00" d=" M 1447.59 163.19 C 1447.38 149.29 1447.54 135.40 1447.51 121.50 C 1481.55 121.45 1515.59 121.58 1549.63 121.44 C 1549.90 230.53 1549.67 339.64 1549.74 448.74 C 1526.09 448.76 1502.43 448.73 1478.78 448.76 C 1478.71 357.30 1478.78 265.84 1478.74 174.39 C 1468.35 170.67 1457.99 166.86 1447.59 163.19 Z" />
<path fill="#6e0172" opacity="1.00" d=" M 1775.76 125.70 C 1800.47 123.73 1825.25 122.38 1850.04 121.92 C 1873.05 121.31 1896.22 120.95 1919.07 124.34 C 1939.45 127.33 1959.77 132.88 1977.64 143.37 C 1993.10 152.37 2006.15 165.56 2014.65 181.32 C 2022.86 196.56 2026.87 213.73 2028.39 230.88 C 2029.57 243.55 2029.19 256.28 2029.25 268.98 C 2029.25 311.66 2029.24 354.33 2029.25 397.00 C 2039.55 400.78 2049.88 404.47 2060.21 408.18 C 2060.25 422.05 2060.32 435.91 2060.18 449.77 C 2027.54 449.71 1994.90 449.77 1962.26 449.75 C 1962.24 431.71 1962.25 413.67 1962.26 395.63 C 1944.78 427.18 1912.43 449.72 1876.97 455.97 C 1854.50 459.87 1831.11 459.00 1809.04 453.18 C 1788.91 447.78 1769.75 436.94 1756.78 420.36 C 1744.36 405.14 1738.31 385.55 1737.44 366.11 C 1736.44 347.30 1739.06 327.50 1749.25 311.28 C 1759.99 294.16 1777.42 282.18 1796.02 274.94 C 1826.17 263.34 1858.90 260.60 1890.96 261.25 C 1912.55 261.24 1934.15 261.28 1955.76 261.23 C 1955.74 248.75 1956.35 236.03 1952.83 223.90 C 1949.40 210.77 1941.34 198.49 1929.35 191.75 C 1918.05 185.26 1904.81 183.06 1891.93 182.99 C 1853.17 183.07 1814.44 184.91 1775.76 187.27 C 1775.74 166.75 1775.75 146.23 1775.76 125.70 M 1855.04 296.91 C 1838.13 301.52 1823.47 314.30 1817.56 330.92 C 1812.42 345.63 1812.36 362.31 1818.26 376.81 C 1822.80 387.65 1831.04 396.84 1841.18 402.76 C 1856.16 411.45 1874.13 413.07 1891.09 411.56 C 1908.40 409.86 1925.96 402.91 1937.18 389.14 C 1950.63 373.80 1955.09 352.90 1955.76 333.03 C 1955.69 319.84 1955.85 306.65 1955.67 293.46 C 1936.78 293.56 1917.90 293.47 1899.01 293.50 C 1884.32 293.64 1869.28 292.48 1855.04 296.91 Z" />
<path fill="#6e0172" opacity="1.00" d=" M 1154.25 469.01 C 1158.32 468.98 1162.40 469.00 1166.49 469.00 C 1166.51 484.63 1166.50 500.26 1166.49 515.88 C 1169.74 510.24 1174.23 505.19 1180.04 502.12 C 1188.83 497.38 1199.45 496.69 1209.04 499.13 C 1221.63 502.45 1231.79 512.77 1235.79 525.06 C 1238.42 532.37 1238.52 540.25 1238.14 547.92 C 1237.12 558.91 1232.21 569.65 1224.00 577.10 C 1212.34 587.74 1194.07 589.72 1180.00 583.02 C 1172.83 579.50 1167.22 573.24 1163.99 565.99 C 1164.01 572.07 1164.00 578.16 1163.99 584.24 C 1160.74 584.25 1157.49 584.25 1154.25 584.24 C 1154.24 545.83 1154.26 507.42 1154.25 469.01 M 1187.46 509.57 C 1175.53 512.49 1166.52 523.66 1166.04 535.91 C 1166.17 542.82 1165.19 549.97 1167.48 556.64 C 1170.18 564.75 1176.87 571.35 1184.89 574.25 C 1192.30 576.90 1200.70 576.97 1208.02 573.95 C 1214.95 570.98 1220.39 565.02 1223.23 558.09 C 1229.04 543.73 1226.99 524.81 1214.48 514.60 C 1207.06 508.46 1196.57 507.16 1187.46 509.57 Z" />
<path fill="#6e0172" opacity="1.00" d=" M 1590.01 474.75 C 1596.41 474.75 1602.82 474.74 1609.24 474.76 C 1609.26 483.25 1609.24 491.74 1609.25 500.24 C 1618.34 500.30 1627.43 500.18 1636.52 500.30 C 1636.41 504.79 1636.64 509.30 1636.38 513.80 C 1627.32 513.76 1618.25 513.62 1609.21 513.87 C 1609.32 528.27 1609.19 542.67 1609.27 557.07 C 1609.37 562.78 1612.83 568.48 1618.25 570.60 C 1624.06 572.83 1630.41 571.74 1636.49 572.00 C 1636.53 577.55 1636.44 583.11 1636.54 588.67 C 1624.94 588.77 1612.55 589.60 1601.88 584.17 C 1592.91 579.39 1590.56 568.41 1590.05 559.10 C 1589.92 543.98 1590.04 528.87 1590.00 513.75 C 1585.21 513.63 1580.42 513.98 1575.67 513.57 C 1575.82 509.13 1575.71 504.70 1575.75 500.27 C 1580.49 500.23 1585.24 500.27 1590.00 500.25 C 1590.01 491.75 1589.98 483.25 1590.01 474.75 Z" />
<path fill="#6e0172" opacity="1.00" d=" M 1413.63 497.74 C 1426.32 495.85 1440.04 496.94 1451.20 503.75 C 1465.17 511.73 1473.45 528.04 1472.51 544.00 C 1473.05 554.49 1469.99 565.24 1463.48 573.55 C 1457.21 581.82 1447.65 587.24 1437.61 589.47 C 1430.09 591.06 1422.28 591.15 1414.68 590.18 C 1402.82 588.59 1391.36 582.54 1384.26 572.78 C 1378.09 564.59 1375.37 554.17 1375.74 544.00 C 1375.39 534.08 1378.04 523.98 1383.83 515.85 C 1390.71 506.03 1401.93 499.77 1413.63 497.74 M 1416.46 514.69 C 1409.85 516.39 1404.15 521.03 1400.89 526.99 C 1397.12 533.97 1396.09 542.27 1397.27 550.06 C 1398.38 558.61 1403.04 567.14 1411.01 571.04 C 1421.72 576.30 1436.39 574.87 1444.38 565.45 C 1451.73 556.53 1453.13 543.75 1449.85 532.91 C 1448.05 526.61 1443.86 521.12 1438.43 517.53 C 1431.93 513.54 1423.75 512.79 1416.46 514.69 Z" />
<path fill="#6e0172" opacity="1.00" d=" M 1503.22 503.29 C 1510.59 498.72 1519.37 496.73 1528.00 496.98 C 1539.83 496.59 1552.12 500.88 1560.13 509.82 C 1564.96 515.10 1567.87 521.91 1568.96 528.95 C 1562.03 529.06 1555.11 528.97 1548.19 529.00 C 1546.62 523.07 1542.49 517.58 1536.58 515.48 C 1528.48 512.58 1518.33 513.80 1512.27 520.30 C 1507.33 525.25 1505.25 532.28 1504.65 539.09 C 1504.04 547.31 1504.70 555.98 1508.72 563.34 C 1515.93 576.51 1537.57 577.36 1545.98 565.02 C 1547.47 562.92 1548.36 560.47 1549.07 558.01 C 1555.96 558.04 1562.87 557.88 1569.78 558.11 C 1568.57 567.24 1563.97 575.93 1556.66 581.62 C 1548.66 588.10 1538.21 590.99 1528.02 590.77 C 1518.98 590.96 1509.73 588.89 1502.17 583.79 C 1492.25 577.50 1486.00 566.48 1484.15 555.04 C 1482.52 544.83 1482.94 534.12 1486.51 524.35 C 1489.61 515.78 1495.41 508.08 1503.22 503.29 Z" />
<path fill="#6e0172" opacity="1.00" d=" M 1780.97 501.90 C 1789.77 496.99 1800.38 496.66 1810.10 498.36 C 1820.01 499.96 1828.89 506.22 1834.27 514.62 C 1839.91 523.24 1841.87 533.80 1841.52 543.98 C 1841.88 555.99 1838.91 568.62 1830.98 577.94 C 1820.76 590.20 1802.49 593.63 1787.85 588.21 C 1779.06 584.93 1772.12 577.88 1767.75 569.70 C 1767.73 587.05 1767.76 604.40 1767.74 621.74 C 1762.81 621.74 1757.90 621.76 1752.99 621.75 C 1750.82 621.81 1748.53 621.02 1746.50 622.00 L 1746.19 622.00 C 1746.79 616.70 1746.37 611.34 1746.50 606.02 C 1746.52 575.56 1746.46 545.10 1746.53 514.64 C 1743.78 513.58 1741.02 512.59 1738.26 511.61 C 1738.23 507.82 1738.24 504.04 1738.26 500.26 C 1747.50 500.24 1756.74 500.26 1765.99 500.25 C 1766.02 507.01 1765.96 513.77 1766.03 520.54 C 1768.79 512.93 1773.76 505.85 1780.97 501.90 M 1787.57 514.79 C 1780.75 516.62 1775.26 521.95 1772.28 528.23 C 1766.37 541.71 1768.22 560.15 1780.50 569.53 C 1790.12 576.64 1805.09 575.21 1812.84 565.95 C 1818.74 559.15 1820.77 549.77 1820.22 540.96 C 1819.82 532.53 1816.34 523.87 1809.51 518.64 C 1803.39 513.84 1794.94 512.91 1787.57 514.79 Z" />
<path fill="#6e0172" opacity="1.00" d=" M 1958.34 508.42 C 1964.21 501.55 1973.36 498.67 1982.07 497.72 C 1993.26 496.88 2005.29 497.66 2014.99 503.89 C 2021.39 507.72 2025.48 514.64 2026.34 522.00 C 2020.19 521.99 2014.05 522.01 2007.91 521.99 C 2005.61 516.48 2000.36 512.56 1994.49 511.65 C 1987.97 510.72 1980.47 510.75 1975.16 515.21 C 1970.97 518.56 1970.18 525.30 1973.60 529.47 C 1976.62 533.06 1981.47 534.11 1985.90 534.86 C 1993.28 535.79 2000.82 535.99 2007.97 538.29 C 2016.17 540.81 2024.69 545.74 2027.71 554.25 C 2030.38 562.57 2029.38 572.68 2023.18 579.22 C 2016.56 586.55 2006.45 589.40 1996.92 590.20 C 1986.28 591.02 1975.10 590.25 1965.36 585.55 C 1957.53 581.82 1951.60 574.25 1950.64 565.53 C 1956.76 565.46 1962.90 565.50 1969.04 565.51 C 1971.54 570.67 1976.33 574.66 1981.97 575.90 C 1989.22 577.54 1997.20 577.45 2004.03 574.23 C 2008.29 572.28 2011.42 567.67 2010.66 562.89 C 2010.15 558.23 2006.28 554.54 2001.96 553.18 C 1992.01 549.76 1981.11 551.31 1971.19 547.70 C 1963.12 545.19 1955.63 539.03 1953.77 530.49 C 1952.28 522.98 1953.18 514.40 1958.34 508.42 Z" />
<path fill="#6e0172" opacity="1.00" d=" M 1656.75 499.84 C 1665.79 498.72 1674.94 498.88 1684.03 498.49 C 1694.80 498.74 1706.39 499.99 1715.15 506.89 C 1722.07 512.38 1725.25 521.33 1725.50 529.95 C 1725.51 544.33 1725.49 558.72 1725.51 573.10 C 1728.32 574.15 1731.15 575.16 1733.99 576.21 C 1734.00 580.05 1734.00 583.90 1733.99 587.75 C 1725.07 587.74 1716.16 587.75 1707.26 587.74 C 1707.21 583.10 1707.30 578.45 1707.19 573.81 C 1702.71 580.69 1695.98 586.15 1688.04 588.45 C 1679.75 590.78 1670.68 590.48 1662.60 587.51 C 1654.66 584.60 1648.23 577.50 1646.93 569.05 C 1645.73 561.49 1646.35 552.80 1651.89 546.98 C 1658.95 539.52 1669.63 537.35 1679.46 536.57 C 1688.13 536.39 1696.81 536.56 1705.49 536.50 C 1705.74 530.75 1705.47 524.15 1701.06 519.89 C 1697.76 516.37 1692.69 515.36 1688.06 515.49 C 1677.61 515.33 1667.19 516.04 1656.76 516.53 C 1656.73 510.97 1656.75 505.40 1656.75 499.84 M 1672.95 549.07 C 1664.93 555.23 1665.48 569.35 1674.36 574.49 C 1683.49 579.78 1697.68 577.79 1702.75 567.76 C 1706.47 560.85 1705.38 552.75 1705.44 545.22 C 1700.61 545.28 1695.80 545.24 1690.99 545.25 C 1684.86 545.18 1677.98 544.97 1672.95 549.07 Z" />
<path fill="#6e0172" opacity="1.00" d=" M 1853.26 500.26 C 1860.20 500.22 1867.16 500.31 1874.12 500.21 C 1874.41 517.13 1874.17 534.06 1874.24 550.99 C 1874.10 556.57 1875.41 562.42 1879.28 566.64 C 1887.35 575.34 1903.60 573.85 1909.82 563.66 C 1913.69 557.85 1912.95 550.56 1913.00 543.93 C 1913.01 529.37 1912.98 514.81 1913.01 500.25 C 1920.00 500.25 1926.99 500.25 1933.99 500.25 C 1934.02 524.56 1933.98 548.87 1934.01 573.19 C 1936.83 574.19 1939.66 575.20 1942.49 576.22 C 1942.51 580.02 1942.44 583.81 1942.57 587.62 C 1933.33 587.94 1924.08 587.62 1914.85 587.78 C 1914.65 581.74 1914.74 575.70 1914.81 569.67 C 1911.39 578.47 1904.33 586.10 1895.13 588.84 C 1886.79 591.31 1877.43 591.22 1869.43 587.60 C 1862.35 584.31 1857.62 577.42 1855.57 570.05 C 1852.38 559.33 1853.42 548.04 1853.25 537.02 C 1853.25 524.77 1853.24 512.51 1853.26 500.26 Z" />
<path fill="#6e0172" opacity="1.00" d=" M 1248.64 500.78 C 1252.77 500.72 1256.90 500.75 1261.03 500.76 C 1269.53 524.44 1278.13 548.10 1286.45 571.85 C 1287.72 571.93 1289.01 572.00 1290.32 572.05 C 1297.83 548.29 1305.01 524.43 1312.64 500.71 C 1316.53 500.79 1320.42 500.71 1324.32 500.78 C 1314.44 532.36 1304.53 563.92 1294.61 595.49 C 1291.94 603.80 1286.07 611.55 1277.54 614.37 C 1269.78 617.38 1261.37 616.32 1253.26 616.50 C 1253.23 612.93 1253.26 609.36 1253.24 605.80 C 1261.27 605.28 1270.32 607.34 1277.35 602.35 C 1283.56 597.42 1284.85 589.11 1287.21 582.01 C 1284.41 581.99 1281.61 581.99 1278.83 582.00 C 1268.77 554.92 1258.64 527.88 1248.64 500.78 Z" />
<path fill="#6e0172" opacity="1.00" d=" M 2041.52 568.67 C 2049.09 565.56 2057.91 573.23 2055.76 581.16 C 2054.53 589.03 2043.67 592.51 2038.03 586.94 C 2031.89 582.02 2034.03 571.03 2041.52 568.67 Z" />
</g>
<g id="#de3885ff">
<path fill="#de3885" opacity="1.00" d=" M 240.00 8.24 C 266.03 2.10 292.85 -0.38 319.57 0.26 C 320.01 2.25 321.31 3.77 322.50 5.34 C 323.03 6.95 323.18 8.66 323.46 10.33 C 324.49 10.76 325.52 11.18 326.55 11.60 C 328.22 15.81 326.27 21.64 330.35 24.63 C 332.25 27.56 334.70 30.44 335.09 34.04 C 335.32 36.90 338.34 38.40 339.01 41.12 C 340.19 44.15 339.23 47.97 341.73 50.41 C 342.86 51.64 343.00 53.39 343.47 54.93 C 344.16 55.41 344.85 55.90 345.54 56.38 C 345.94 58.83 345.95 61.49 347.40 63.62 C 350.74 68.82 352.27 74.92 353.49 80.91 C 354.05 81.33 354.60 81.77 355.13 82.24 C 357.99 87.93 359.75 94.09 362.03 100.03 C 364.19 108.44 367.66 116.44 370.51 124.63 C 374.59 128.63 372.96 135.49 376.86 139.55 C 369.23 140.94 361.68 142.82 354.25 145.06 C 348.78 143.81 343.30 142.57 337.76 141.70 C 338.13 139.85 338.49 137.99 338.81 136.13 C 336.14 133.43 336.33 129.11 333.30 126.72 C 333.62 122.72 331.44 119.49 330.22 115.90 C 325.97 111.73 326.33 105.12 322.58 100.64 C 322.43 96.62 319.21 94.06 318.42 90.26 C 316.07 88.16 315.79 85.08 315.58 82.13 C 273.69 90.81 231.89 100.03 190.04 108.98 C 152.41 117.04 114.77 125.07 77.16 133.24 C 68.97 134.72 60.96 137.28 52.63 137.90 C 95.77 73.13 164.10 25.64 240.00 8.24 Z" />
</g>
<g id="#ce3482ff">
<path fill="#ce3482" opacity="1.00" d=" M 319.57 0.26 C 336.11 0.64 352.61 2.50 368.89 5.50 C 371.83 10.82 371.26 17.62 375.44 22.32 C 376.90 26.57 377.05 31.50 380.22 34.98 C 381.98 39.37 381.96 44.69 385.39 48.32 C 387.23 56.29 390.68 63.78 392.56 71.74 C 394.03 73.71 394.81 75.96 395.10 78.39 C 397.38 84.14 399.55 89.97 400.98 96.00 C 401.31 98.69 404.39 100.10 404.21 102.99 C 404.51 110.24 407.99 116.71 409.56 123.69 C 411.08 127.33 412.54 131.01 413.11 134.95 C 407.38 135.42 401.64 135.89 395.93 136.62 C 389.54 137.37 383.17 138.26 376.86 139.55 C 372.96 135.49 374.59 128.63 370.51 124.63 C 367.66 116.44 364.19 108.44 362.03 100.03 C 359.75 94.09 357.99 87.93 355.13 82.24 C 354.60 81.77 354.05 81.33 353.49 80.91 C 352.27 74.92 350.74 68.82 347.40 63.62 C 345.95 61.49 345.94 58.83 345.54 56.38 C 344.85 55.90 344.16 55.41 343.47 54.93 C 343.00 53.39 342.86 51.64 341.73 50.41 C 339.23 47.97 340.19 44.15 339.01 41.12 C 338.34 38.40 335.32 36.90 335.09 34.04 C 334.70 30.44 332.25 27.56 330.35 24.63 C 326.27 21.64 328.22 15.81 326.55 11.60 C 325.52 11.18 324.49 10.76 323.46 10.33 C 323.18 8.66 323.03 6.95 322.50 5.34 C 321.31 3.77 320.01 2.25 319.57 0.26 Z" />
</g>
<g id="#c23080ff">
<path fill="#c23080" opacity="1.00" d=" M 368.89 5.50 C 379.96 7.60 390.91 10.30 401.69 13.57 C 402.27 16.11 402.21 18.72 402.21 21.31 C 403.28 21.74 404.36 22.16 405.45 22.59 C 406.93 27.73 408.21 32.93 410.02 37.98 C 412.30 44.18 413.25 50.84 416.21 56.80 C 418.15 60.39 418.05 64.73 420.32 68.16 C 422.64 72.24 420.57 77.67 423.62 81.41 C 427.19 86.59 426.98 93.02 427.20 99.03 C 427.98 99.45 428.78 99.88 429.57 100.31 C 430.52 106.60 432.78 112.61 434.63 118.66 C 437.73 123.01 437.82 128.47 437.47 133.59 C 429.35 134.12 421.22 134.38 413.11 134.95 C 412.54 131.01 411.08 127.33 409.56 123.69 C 407.99 116.71 404.51 110.24 404.21 102.99 C 404.39 100.10 401.31 98.69 400.98 96.00 C 399.55 89.97 397.38 84.14 395.10 78.39 C 394.81 75.96 394.03 73.71 392.56 71.74 C 390.68 63.78 387.23 56.29 385.39 48.32 C 381.96 44.69 381.98 39.37 380.22 34.98 C 377.05 31.50 376.90 26.57 375.44 22.32 C 371.26 17.62 371.83 10.82 368.89 5.50 Z" />
</g>
<g id="#b72d7eff">
<path fill="#b72d7e" opacity="1.00" d=" M 401.69 13.57 C 464.71 32.68 521.25 72.53 560.35 125.52 C 553.48 126.33 546.60 126.97 539.73 127.68 C 511.67 130.02 483.53 131.16 455.42 132.69 C 449.43 132.99 443.45 133.29 437.47 133.59 C 437.82 128.47 437.73 123.01 434.63 118.66 C 432.78 112.61 430.52 106.60 429.57 100.31 C 428.78 99.88 427.98 99.45 427.20 99.03 C 426.98 93.02 427.19 86.59 423.62 81.41 C 420.57 77.67 422.64 72.24 420.32 68.16 C 418.05 64.73 418.15 60.39 416.21 56.80 C 413.25 50.84 412.30 44.18 410.02 37.98 C 408.21 32.93 406.93 27.73 405.45 22.59 C 404.36 22.16 403.28 21.74 402.21 21.31 C 402.21 18.72 402.27 16.11 401.69 13.57 Z" />
</g>
<g id="#e83c87ff">
<path fill="#e83c87" opacity="1.00" d=" M 190.04 108.98 C 231.89 100.03 273.69 90.81 315.58 82.13 C 315.79 85.08 316.07 88.16 318.42 90.26 C 319.21 94.06 322.43 96.62 322.58 100.64 C 326.33 105.12 325.97 111.73 330.22 115.90 C 331.44 119.49 333.62 122.72 333.30 126.72 C 336.33 129.11 336.14 133.43 338.81 136.13 C 338.49 137.99 338.13 139.85 337.76 141.70 C 303.32 136.17 267.22 141.51 235.90 156.88 C 224.77 162.26 214.33 168.98 204.58 176.57 C 199.14 176.74 193.93 178.48 188.63 179.53 C 130.58 191.83 72.63 204.57 14.57 216.77 C 23.42 188.85 36.28 162.20 52.63 137.90 C 60.96 137.28 68.97 134.72 77.16 133.24 C 114.77 125.07 152.41 117.04 190.04 108.98 Z" />
</g>
<g id="#ff4587ff">
<path fill="#ff4587" opacity="1.00" d=" M 619.01 112.35 C 633.32 107.01 646.62 99.32 658.93 90.34 C 659.06 112.84 649.89 135.13 634.31 151.31 C 623.72 162.48 610.35 170.68 596.20 176.55 C 597.80 178.57 599.37 180.62 600.89 182.71 C 584.77 193.68 568.28 204.12 552.37 215.40 C 528.31 231.28 504.68 247.77 480.59 263.60 C 464.38 275.16 447.41 285.59 431.23 297.20 C 419.99 304.63 408.83 312.19 397.56 319.59 C 395.93 320.63 394.71 322.13 393.54 323.64 C 377.74 313.20 360.02 305.71 341.55 301.52 C 345.79 297.64 350.92 294.95 355.47 291.47 C 370.08 281.36 385.16 271.94 399.62 261.60 C 420.53 247.92 440.96 233.55 461.83 219.80 C 472.92 212.61 483.51 204.71 494.66 197.62 C 507.58 189.28 519.97 180.19 532.84 171.79 C 550.53 160.24 567.72 147.97 585.39 136.40 C 595.11 130.23 604.19 123.12 614.01 117.10 C 616.04 115.94 617.89 114.44 619.01 112.35 Z" />
</g>
<g id="#ff4b79ff">
<path fill="#ff4b79" opacity="1.00" d=" M 560.35 125.52 C 580.27 123.11 600.17 119.40 619.01 112.35 C 617.89 114.44 616.04 115.94 614.01 117.10 C 604.19 123.12 595.11 130.23 585.39 136.40 C 567.72 147.97 550.53 160.24 532.84 171.79 C 519.97 180.19 507.58 189.28 494.66 197.62 C 483.51 204.71 472.92 212.61 461.83 219.80 C 440.96 233.55 420.53 247.92 399.62 261.60 C 385.16 271.94 370.08 281.36 355.47 291.47 C 350.92 294.95 345.79 297.64 341.55 301.52 C 326.83 298.08 311.68 297.16 296.60 297.47 C 299.56 293.97 303.73 291.94 307.41 289.35 C 315.12 284.09 323.14 279.28 330.57 273.62 C 341.93 265.93 353.39 258.38 364.81 250.78 C 380.20 239.71 396.39 229.82 411.80 218.79 C 422.21 211.84 432.61 204.90 443.02 197.97 C 457.87 187.36 473.33 177.66 488.39 167.37 C 501.81 157.66 515.92 148.96 529.55 139.55 C 534.82 135.60 540.41 132.12 545.84 128.40 C 543.80 128.14 541.76 127.86 539.73 127.68 C 546.60 126.97 553.48 126.33 560.35 125.52 Z" />
</g>
<g id="#ff516bff">
<path fill="#ff516b" opacity="1.00" d=" M 455.42 132.69 C 483.53 131.16 511.67 130.02 539.73 127.68 C 541.76 127.86 543.80 128.14 545.84 128.40 C 540.41 132.12 534.82 135.60 529.55 139.55 C 515.92 148.96 501.81 157.66 488.39 167.37 C 473.33 177.66 457.87 187.36 443.02 197.97 C 432.61 204.90 422.21 211.84 411.80 218.79 C 396.39 229.82 380.20 239.71 364.81 250.78 C 353.39 258.38 341.93 265.93 330.57 273.62 C 323.14 279.28 315.12 284.09 307.41 289.35 C 303.73 291.94 299.56 293.97 296.60 297.47 C 285.41 297.67 273.97 298.47 263.48 302.67 C 252.23 307.12 242.82 315.16 234.84 324.07 C 227.15 315.99 222.47 305.37 220.92 294.38 C 227.54 290.66 233.64 286.12 240.00 282.00 C 250.73 274.30 261.88 267.22 272.80 259.81 C 282.47 253.55 291.65 246.58 301.38 240.41 C 317.19 230.28 332.21 218.97 348.21 209.13 C 360.02 207.88 371.60 202.61 379.34 193.43 C 383.25 189.07 385.78 183.74 388.05 178.40 C 398.97 172.62 408.68 164.80 419.01 158.05 C 426.58 152.93 434.19 147.88 441.82 142.85 C 446.52 139.70 451.44 136.77 455.42 132.69 Z" />
</g>
<g id="#ff575cff">
<path fill="#ff575c" opacity="1.00" d=" M 437.47 133.59 C 443.45 133.29 449.43 132.99 455.42 132.69 C 451.44 136.77 446.52 139.70 441.82 142.85 C 434.19 147.88 426.58 152.93 419.01 158.05 C 408.68 164.80 398.97 172.62 388.05 178.40 C 386.08 176.87 383.50 176.75 381.15 176.31 C 370.30 174.76 359.05 174.67 348.41 177.53 C 339.95 179.74 331.97 185.38 328.46 193.56 C 326.51 197.75 326.93 203.26 330.69 206.31 C 335.62 210.18 342.33 209.70 348.21 209.13 C 332.21 218.97 317.19 230.28 301.38 240.41 C 291.65 246.58 282.47 253.55 272.80 259.81 C 261.88 267.22 250.73 274.30 240.00 282.00 C 233.64 286.12 227.54 290.66 220.92 294.38 C 218.67 278.88 222.47 262.83 230.35 249.40 C 231.71 249.30 233.10 249.08 234.21 248.23 C 244.53 241.21 255.14 234.63 265.18 227.22 C 275.98 219.99 286.79 212.79 297.62 205.63 C 313.52 194.05 330.45 183.96 346.38 172.42 C 363.65 160.88 381.05 149.51 397.98 137.49 C 397.47 137.27 396.45 136.84 395.93 136.62 C 401.64 135.89 407.38 135.42 413.11 134.95 C 421.22 134.38 429.35 134.12 437.47 133.59 Z" />
</g>
<g id="#ff5b54ff">
<path fill="#ff5b54" opacity="1.00" d=" M 376.86 139.55 C 383.17 138.26 389.54 137.37 395.93 136.62 C 396.45 136.84 397.47 137.27 397.98 137.49 C 381.05 149.51 363.65 160.88 346.38 172.42 C 330.45 183.96 313.52 194.05 297.62 205.63 C 286.79 212.79 275.98 219.99 265.18 227.22 C 255.14 234.63 244.53 241.21 234.21 248.23 C 233.10 249.08 231.71 249.30 230.35 249.40 C 245.33 223.72 272.86 208.18 300.77 200.30 C 299.49 188.65 304.72 177.09 312.63 168.75 C 323.73 156.85 338.99 149.95 354.25 145.06 C 361.68 142.82 369.23 140.94 376.86 139.55 Z" />
</g>
<g id="#f23f89ff">
<path fill="#f23f89" opacity="1.00" d=" M 188.63 179.53 C 193.93 178.48 199.14 176.74 204.58 176.57 C 178.01 197.62 157.82 226.62 147.58 258.95 C 141.13 259.42 134.96 261.43 128.63 262.54 C 86.00 271.68 43.39 280.94 0.76 290.06 C 2.39 265.19 7.03 240.52 14.57 216.77 C 72.63 204.57 130.58 191.83 188.63 179.53 Z" />
</g>
<g id="#f84288ff">
<path fill="#f84288" opacity="1.00" d=" M 552.37 215.40 C 568.28 204.12 584.77 193.68 600.89 182.71 C 609.02 193.93 616.25 205.80 622.80 218.01 C 621.58 219.41 620.36 220.85 618.80 221.88 C 605.19 230.89 591.49 239.78 578.18 249.24 C 558.66 261.94 539.65 275.40 520.21 288.22 C 507.94 296.23 496.10 304.86 483.78 312.79 C 464.38 325.72 445.33 339.18 425.67 351.72 C 416.26 341.00 405.44 331.51 393.54 323.64 C 394.71 322.13 395.93 320.63 397.56 319.59 C 408.83 312.19 419.99 304.63 431.23 297.20 C 447.41 285.59 464.38 275.16 480.59 263.60 C 504.68 247.77 528.31 231.28 552.37 215.40 Z" />
</g>
<g id="#ee4182ff">
<path fill="#ee4182" opacity="1.00" d=" M 622.80 218.01 C 632.03 235.41 639.81 253.59 645.68 272.40 C 631.18 282.79 616.18 292.45 601.38 302.40 C 585.45 313.92 568.56 324.05 552.63 335.58 C 541.22 343.18 529.82 350.80 518.39 358.38 C 502.65 369.77 485.97 379.80 470.20 391.16 C 465.34 394.35 460.65 397.82 455.55 400.62 C 448.43 382.80 438.30 366.17 425.67 351.72 C 445.33 339.18 464.38 325.72 483.78 312.79 C 496.10 304.86 507.94 296.23 520.21 288.22 C 539.65 275.40 558.66 261.94 578.18 249.24 C 591.49 239.78 605.19 230.89 618.80 221.88 C 620.36 220.85 621.58 219.41 622.80 218.01 Z" />
</g>
<g id="#fc428bff">
<path fill="#fc428b" opacity="1.00" d=" M 128.63 262.54 C 134.96 261.43 141.13 259.42 147.58 258.95 C 140.18 282.32 137.77 307.27 140.77 331.60 C 102.29 339.73 63.84 348.02 25.40 356.34 C 18.31 358.01 11.07 359.07 4.13 361.30 C 1.59 346.41 0.54 331.33 0.00 316.26 L 0.00 306.37 C 0.41 300.94 0.30 295.49 0.76 290.06 C 43.39 280.94 86.00 271.68 128.63 262.54 Z" />
</g>
<g id="#e4407cff">
<path fill="#e4407c" opacity="1.00" d=" M 601.38 302.40 C 616.18 292.45 631.18 282.79 645.68 272.40 C 649.27 283.70 652.09 295.24 654.23 306.90 C 637.63 317.65 621.52 329.10 605.02 340.00 C 588.18 351.13 571.70 362.80 554.77 373.80 C 540.01 384.09 525.00 394.03 510.01 403.99 C 496.72 413.54 482.85 422.24 469.35 431.50 C 468.14 432.52 466.59 432.68 465.09 432.32 C 462.89 422.00 460.07 411.78 456.09 402.00 C 455.95 401.65 455.68 400.97 455.55 400.62 C 460.65 397.82 465.34 394.35 470.20 391.16 C 485.97 379.80 502.65 369.77 518.39 358.38 C 529.82 350.80 541.22 343.18 552.63 335.58 C 568.56 324.05 585.45 313.92 601.38 302.40 Z" />
</g>
<g id="#db3f77ff">
<path fill="#db3f77" opacity="1.00" d=" M 605.02 340.00 C 621.52 329.10 637.63 317.65 654.23 306.90 C 658.22 328.94 659.39 351.50 657.47 373.83 C 646.85 380.26 636.97 387.80 626.55 394.55 C 622.94 389.02 618.75 383.90 614.25 379.07 C 612.91 385.10 611.35 391.07 609.66 397.01 C 604.65 398.25 600.94 402.06 596.61 404.62 C 580.30 415.66 564.06 426.80 547.59 437.60 C 533.32 447.80 518.49 457.18 504.01 467.07 C 496.29 472.77 488.15 477.84 480.20 483.20 C 476.40 485.65 472.90 488.67 468.54 490.11 C 468.74 487.60 468.82 485.10 468.87 482.59 C 469.51 465.77 468.53 448.83 465.09 432.32 C 466.59 432.68 468.14 432.52 469.35 431.50 C 482.85 422.24 496.72 413.54 510.01 403.99 C 525.00 394.03 540.01 384.09 554.77 373.80 C 571.70 362.80 588.18 351.13 605.02 340.00 Z" />
</g>
<g id="#ff4685ff">
<path fill="#ff4685" opacity="1.00" d=" M 25.40 356.34 C 63.84 348.02 102.29 339.73 140.77 331.60 C 142.31 344.27 145.25 356.76 149.57 368.77 C 143.01 371.03 136.06 371.71 129.38 373.49 C 107.99 378.13 86.58 382.67 65.18 387.28 C 47.59 390.82 30.16 395.16 12.48 398.27 C 8.93 386.13 6.15 373.78 4.13 361.30 C 11.07 359.07 18.31 358.01 25.40 356.34 Z" />
</g>
<g id="#ff4a7bff">
<path fill="#ff4a7b" opacity="1.00" d=" M 129.38 373.49 C 136.06 371.71 143.01 371.03 149.57 368.77 C 157.20 390.05 169.11 409.78 184.38 426.46 C 135.46 437.72 86.18 447.38 37.22 458.50 C 26.86 439.38 18.59 419.13 12.48 398.27 C 30.16 395.16 47.59 390.82 65.18 387.28 C 86.58 382.67 107.99 378.13 129.38 373.49 Z" />
</g>
<g id="#d23d72ff">
<path fill="#d23d72" opacity="1.00" d=" M 626.55 394.55 C 636.97 387.80 646.85 380.26 657.47 373.83 C 655.71 393.93 651.41 413.82 644.63 432.82 C 640.70 419.20 634.45 406.30 626.55 394.55 Z" />
</g>
<g id="#cf3d70ff">
<path fill="#cf3d70" opacity="1.00" d=" M 596.61 404.62 C 600.94 402.06 604.65 398.25 609.66 397.01 C 603.62 418.12 595.29 438.58 584.88 457.91 C 548.73 525.57 486.68 579.00 414.17 604.17 C 415.07 602.91 415.99 601.66 417.07 600.56 C 427.50 592.17 435.53 581.19 442.77 570.04 C 447.56 562.24 451.86 554.10 455.28 545.60 C 462.63 527.95 466.87 509.12 468.54 490.11 C 472.90 488.67 476.40 485.65 480.20 483.20 C 488.15 477.84 496.29 472.77 504.01 467.07 C 518.49 457.18 533.32 447.80 547.59 437.60 C 564.06 426.80 580.30 415.66 596.61 404.62 Z" />
</g>
<g id="#d81e33ff">
<path fill="#d81e33" opacity="1.00" d=" M 438.20 424.59 C 444.31 417.19 450.31 409.68 456.09 402.00 C 460.07 411.78 462.89 422.00 465.09 432.32 C 468.53 448.83 469.51 465.77 468.87 482.59 C 465.94 480.09 464.73 476.33 462.76 473.14 C 461.10 470.43 461.23 467.07 459.67 464.31 C 457.25 459.67 455.02 454.95 452.63 450.31 C 451.88 448.60 450.20 447.72 448.93 446.50 C 449.12 444.34 448.84 442.19 447.66 440.34 C 444.68 435.00 442.67 428.94 438.20 424.59 Z" />
</g>
<g id="#e0293aff">
<path fill="#e0293a" opacity="1.00" d=" M 412.87 448.59 C 422.33 441.73 430.57 433.40 438.20 424.59 C 442.67 428.94 444.68 435.00 447.66 440.34 C 448.84 442.19 449.12 444.34 448.93 446.50 C 450.20 447.72 451.88 448.60 452.63 450.31 C 455.02 454.95 457.25 459.67 459.67 464.31 C 461.23 467.07 461.10 470.43 462.76 473.14 C 464.73 476.33 465.94 480.09 468.87 482.59 C 468.82 485.10 468.74 487.60 468.54 490.11 C 466.87 509.12 462.63 527.95 455.28 545.60 C 452.01 540.83 449.81 535.52 447.74 530.18 C 443.72 524.85 441.85 518.37 438.40 512.71 C 435.65 508.25 436.38 502.80 435.14 497.89 C 433.61 491.95 431.82 485.94 431.99 479.74 C 428.86 475.08 426.86 469.79 423.74 465.11 C 421.90 462.44 424.20 458.76 421.67 456.36 C 419.76 454.49 418.00 452.46 418.24 449.60 C 416.46 449.22 414.66 448.88 412.87 448.59 Z" />
</g>
<g id="#ff4e71ff">
<path fill="#ff4e71" opacity="1.00" d=" M 37.22 458.50 C 86.18 447.38 135.46 437.72 184.38 426.46 C 196.08 439.35 209.84 450.33 224.86 459.14 C 223.99 459.92 223.03 460.53 221.97 460.97 C 168.19 472.31 114.51 484.15 60.73 495.55 C 52.06 483.76 44.17 471.39 37.22 458.50 Z" />
</g>
<g id="#e93743ff">
<path fill="#e93743" opacity="1.00" d=" M 381.08 467.09 C 392.31 462.12 403.02 455.93 412.87 448.59 C 414.66 448.88 416.46 449.22 418.24 449.60 C 418.00 452.46 419.76 454.49 421.67 456.36 C 424.20 458.76 421.90 462.44 423.74 465.11 C 426.86 469.79 428.86 475.08 431.99 479.74 C 431.82 485.94 433.61 491.95 435.14 497.89 C 436.38 502.80 435.65 508.25 438.40 512.71 C 441.85 518.37 443.72 524.85 447.74 530.18 C 449.81 535.52 452.01 540.83 455.28 545.60 C 451.86 554.10 447.56 562.24 442.77 570.04 C 438.90 566.66 436.48 562.25 434.16 557.78 C 429.27 553.17 425.93 547.13 424.08 540.70 C 423.01 536.92 420.91 533.24 417.16 531.59 C 416.62 529.27 417.35 526.96 417.36 524.65 C 416.48 522.39 414.55 520.80 413.06 518.96 C 410.24 515.92 409.61 511.38 406.25 508.77 C 403.66 506.70 402.87 503.37 401.35 500.58 C 401.20 499.62 400.16 499.98 399.54 499.92 C 397.58 499.72 395.62 499.10 394.07 497.87 C 392.28 494.71 392.03 490.93 390.32 487.72 C 386.85 481.03 385.40 473.32 381.08 467.09 Z" />
</g>
<g id="#ff5365ff">
<path fill="#ff5365" opacity="1.00" d=" M 224.86 459.14 C 255.68 477.17 292.25 485.05 327.77 481.47 C 332.01 493.37 338.42 504.36 343.84 515.75 C 343.44 516.61 343.03 517.48 342.64 518.36 C 341.89 517.93 341.14 517.51 340.40 517.10 C 340.57 518.72 341.01 520.29 341.57 521.82 C 296.72 531.62 251.83 541.19 206.96 550.85 C 182.50 555.82 158.22 561.69 133.72 566.41 C 105.73 546.99 81.01 522.92 60.73 495.55 C 114.51 484.15 168.19 472.31 221.97 460.97 C 223.03 460.53 223.99 459.92 224.86 459.14 Z" />
</g>
<g id="#f1424dff">
<path fill="#f1424d" opacity="1.00" d=" M 363.90 473.79 C 369.75 471.88 375.48 469.64 381.08 467.09 C 385.40 473.32 386.85 481.03 390.32 487.72 C 392.03 490.93 392.28 494.71 394.07 497.87 C 395.62 499.10 397.58 499.72 399.54 499.92 C 400.16 499.98 401.20 499.62 401.35 500.58 C 402.87 503.37 403.66 506.70 406.25 508.77 C 409.61 511.38 410.24 515.92 413.06 518.96 C 414.55 520.80 416.48 522.39 417.36 524.65 C 417.35 526.96 416.62 529.27 417.16 531.59 C 417.26 533.71 417.74 535.77 418.40 537.78 C 417.38 539.57 417.65 541.53 418.26 543.40 C 417.86 543.69 417.04 544.27 416.64 544.56 C 417.02 546.01 417.40 547.47 417.77 548.93 C 415.19 547.99 413.28 546.03 411.66 543.90 C 411.03 544.12 410.40 544.35 409.78 544.59 C 408.75 543.27 407.70 541.98 406.62 540.72 C 407.33 545.06 406.40 549.36 405.94 553.68 C 403.73 550.36 399.98 549.27 396.28 548.62 C 395.90 549.46 395.53 550.31 395.17 551.17 C 394.45 550.55 393.74 549.94 393.02 549.36 C 391.76 549.39 390.50 549.43 389.24 549.46 C 388.35 548.22 387.46 547.00 386.57 545.77 C 385.62 545.85 384.69 545.93 383.76 546.10 C 383.19 544.11 381.93 542.50 380.72 540.88 C 379.57 537.77 379.59 534.20 377.51 531.46 C 374.19 527.09 373.12 521.63 371.53 516.50 C 373.10 512.98 373.27 508.96 372.32 505.25 C 373.16 505.60 374.01 505.97 374.86 506.33 C 375.86 504.81 376.87 503.09 375.66 501.36 C 374.38 499.44 375.36 497.40 375.66 495.39 C 374.50 492.12 371.23 489.95 370.72 486.36 C 369.84 481.51 366.68 477.68 363.90 473.79 Z" />
</g>
<g id="#f54755ff">
<path fill="#f54755" opacity="1.00" d=" M 345.04 478.81 C 351.42 477.52 357.73 475.86 363.90 473.79 C 366.68 477.68 369.84 481.51 370.72 486.36 C 371.23 489.95 374.50 492.12 375.66 495.39 C 375.36 497.40 374.38 499.44 375.66 501.36 C 376.87 503.09 375.86 504.81 374.86 506.33 C 374.01 505.97 373.16 505.60 372.32 505.25 C 373.27 508.96 373.10 512.98 371.53 516.50 C 366.63 514.39 365.67 508.32 361.15 505.77 C 359.19 504.63 358.14 502.59 357.20 500.63 C 354.32 493.47 349.32 487.35 347.24 479.84 C 346.69 479.59 345.59 479.07 345.04 478.81 Z" />
</g>
<g id="#fa4e5cff">
<path fill="#fa4e5c" opacity="1.00" d=" M 327.77 481.47 C 333.56 480.85 339.34 480.02 345.04 478.81 C 345.59 479.07 346.69 479.59 347.24 479.84 C 349.32 487.35 354.32 493.47 357.20 500.63 C 356.78 501.11 355.94 502.06 355.52 502.54 C 356.25 504.56 357.58 506.62 357.00 508.87 C 356.35 512.13 355.43 515.49 356.67 518.76 C 353.03 519.35 349.36 519.75 345.74 520.44 C 345.32 518.79 344.57 517.26 343.84 515.75 C 338.42 504.36 332.01 493.37 327.77 481.47 Z" />
</g>
<g id="#f95054ff">
<path fill="#f95054" opacity="1.00" d=" M 357.20 500.63 C 358.14 502.59 359.19 504.63 361.15 505.77 C 365.67 508.32 366.63 514.39 371.53 516.50 C 373.12 521.63 374.19 527.09 377.51 531.46 C 379.59 534.20 379.57 537.77 380.72 540.88 C 381.93 542.50 383.19 544.11 383.76 546.10 C 383.42 546.23 382.75 546.48 382.41 546.60 C 382.44 549.06 382.70 551.61 381.48 553.86 C 380.42 553.28 379.36 552.71 378.31 552.14 C 378.42 553.21 378.54 554.28 378.67 555.37 C 377.43 555.18 376.18 554.70 374.92 554.93 C 373.50 555.80 372.44 557.11 371.29 558.29 C 370.52 557.97 369.77 557.67 369.02 557.37 C 368.20 558.48 367.32 559.53 366.39 560.56 C 364.28 558.71 361.88 556.99 360.70 554.36 C 357.38 548.25 353.08 542.46 351.68 535.52 C 349.31 532.43 347.41 528.48 348.23 524.50 C 347.41 523.50 346.57 522.52 345.84 521.46 L 345.74 520.44 C 349.36 519.75 353.03 519.35 356.67 518.76 C 355.43 515.49 356.35 512.13 357.00 508.87 C 357.58 506.62 356.25 504.56 355.52 502.54 C 355.94 502.06 356.78 501.11 357.20 500.63 Z" />
</g>
<g id="#ff5859ff">
<path fill="#ff5859" opacity="1.00" d=" M 342.64 518.36 C 343.03 517.48 343.44 516.61 343.84 515.75 C 344.57 517.26 345.32 518.79 345.74 520.44 L 345.84 521.46 C 346.57 522.52 347.41 523.50 348.23 524.50 C 347.41 528.48 349.31 532.43 351.68 535.52 C 353.08 542.46 357.38 548.25 360.70 554.36 C 361.88 556.99 364.28 558.71 366.39 560.56 C 366.47 563.11 366.72 565.65 367.07 568.18 C 366.82 568.65 366.31 569.58 366.05 570.05 C 364.84 568.60 364.03 566.59 362.13 565.93 C 362.60 567.73 363.20 569.49 363.84 571.24 C 361.36 573.32 357.92 573.16 354.93 573.90 C 310.53 583.54 266.09 593.05 221.65 602.55 C 218.14 603.08 214.65 603.89 211.47 605.52 C 183.86 596.29 157.62 583.02 133.72 566.41 C 158.22 561.69 182.50 555.82 206.96 550.85 C 251.83 541.19 296.72 531.62 341.57 521.82 C 341.01 520.29 340.57 518.72 340.40 517.10 C 341.14 517.51 341.89 517.93 342.64 518.36 Z" />
</g>
<g id="#f14644ff">
<path fill="#f14644" opacity="1.00" d=" M 418.40 537.78 C 417.74 535.77 417.26 533.71 417.16 531.59 C 420.91 533.24 423.01 536.92 424.08 540.70 C 425.93 547.13 429.27 553.17 434.16 557.78 C 436.48 562.25 438.90 566.66 442.77 570.04 C 435.53 581.19 427.50 592.17 417.07 600.56 C 411.81 591.38 407.52 581.68 402.60 572.32 C 401.12 570.44 402.54 568.38 402.67 566.38 C 401.48 563.99 399.54 562.05 398.54 559.57 C 397.39 556.77 396.56 553.85 395.17 551.17 C 395.53 550.31 395.90 549.46 396.28 548.62 C 399.98 549.27 403.73 550.36 405.94 553.68 C 406.40 549.36 407.33 545.06 406.62 540.72 C 407.70 541.98 408.75 543.27 409.78 544.59 C 410.40 544.35 411.03 544.12 411.66 543.90 C 413.28 546.03 415.19 547.99 417.77 548.93 C 417.40 547.47 417.02 546.01 416.64 544.56 C 417.04 544.27 417.86 543.69 418.26 543.40 C 417.65 541.53 417.38 539.57 418.40 537.78 Z" />
</g>
<g id="#f9534cff">
<path fill="#f9534c" opacity="1.00" d=" M 386.57 545.77 C 387.46 547.00 388.35 548.22 389.24 549.46 C 390.50 549.43 391.76 549.39 393.02 549.36 C 393.74 549.94 394.45 550.55 395.17 551.17 C 396.56 553.85 397.39 556.77 398.54 559.57 C 399.54 562.05 401.48 563.99 402.67 566.38 C 402.54 568.38 401.12 570.44 402.60 572.32 C 407.52 581.68 411.81 591.38 417.07 600.56 C 415.99 601.66 415.07 602.91 414.17 604.17 C 405.96 607.10 397.64 609.71 389.18 611.84 C 383.15 603.07 379.48 592.93 374.33 583.64 C 372.39 579.33 369.29 574.84 370.15 569.91 C 369.13 569.32 368.10 568.74 367.07 568.18 C 366.72 565.65 366.47 563.11 366.39 560.56 C 367.32 559.53 368.20 558.48 369.02 557.37 C 369.77 557.67 370.52 557.97 371.29 558.29 C 372.44 557.11 373.50 555.80 374.92 554.93 C 376.18 554.70 377.43 555.18 378.67 555.37 C 378.54 554.28 378.42 553.21 378.31 552.14 C 379.36 552.71 380.42 553.28 381.48 553.86 C 382.70 551.61 382.44 549.06 382.41 546.60 C 382.75 546.48 383.42 546.23 383.76 546.10 C 384.69 545.93 385.62 545.85 386.57 545.77 Z" />
</g>
<g id="#ff5c50ff">
<path fill="#ff5c50" opacity="1.00" d=" M 362.13 565.93 C 364.03 566.59 364.84 568.60 366.05 570.05 C 366.31 569.58 366.82 568.65 367.07 568.18 C 368.10 568.74 369.13 569.32 370.15 569.91 C 369.29 574.84 372.39 579.33 374.33 583.64 C 379.48 592.93 383.15 603.07 389.18 611.84 C 331.00 626.92 268.41 624.84 211.47 605.52 C 214.65 603.89 218.14 603.08 221.65 602.55 C 266.09 593.05 310.53 583.54 354.93 573.90 C 357.92 573.16 361.36 573.32 363.84 571.24 C 363.20 569.49 362.60 567.73 362.13 565.93 Z" />
</g>
</svg>
