<?xml version="1.0" encoding="UTF-8" ?>
<!DOCTYPE svg PUBLIC "-//W3C//DTD SVG 1.1//EN" "http://www.w3.org/Graphics/SVG/1.1/DTD/svg11.dtd">
<svg width="2061pt" height="623pt" viewBox="0 0 2061 623" version="1.1" xmlns="http://www.w3.org/2000/svg">
<g id="#ffedf3ff">
<path fill="#ffedf3" opacity="1.00" d=" M 288.02 1.34 C 294.00 0.88 299.99 0.72 305.97 0.51 C 306.52 10.69 305.48 20.92 306.73 31.06 C 307.77 40.48 306.45 49.99 307.59 59.41 C 308.85 69.65 307.36 79.99 308.69 90.22 C 309.87 99.57 308.47 109.02 309.61 118.38 C 310.46 125.55 310.05 132.78 310.06 139.98 C 304.56 139.95 299.06 140.34 293.59 140.84 C 290.60 127.70 293.09 114.21 291.29 100.96 C 290.57 94.33 291.18 87.67 291.03 81.02 C 290.92 74.98 289.75 69.00 289.94 62.96 C 290.10 56.75 290.29 50.53 289.50 44.36 C 288.68 37.93 288.98 31.45 289.08 24.99 C 289.32 17.07 287.42 9.26 288.02 1.34 Z" />
</g>
<g id="#ffe2ecff">
<path fill="#ffe2ec" opacity="1.00" d=" M 305.97 0.51 C 317.25 0.34 328.53 0.85 339.77 1.83 C 340.14 8.56 341.45 15.26 340.98 22.03 C 340.67 27.28 340.73 32.56 341.35 37.79 C 342.18 44.81 341.83 51.89 341.83 58.94 C 341.81 65.64 343.21 72.27 342.99 78.98 C 342.77 85.79 342.71 92.62 343.51 99.40 C 344.51 108.53 343.16 117.74 344.35 126.86 C 345.05 132.33 345.02 137.85 344.86 143.35 C 333.42 141.06 321.74 139.91 310.06 139.98 C 310.05 132.78 310.46 125.55 309.61 118.38 C 308.47 109.02 309.87 99.57 308.69 90.22 C 307.36 79.99 308.85 69.65 307.59 59.41 C 306.45 49.99 307.77 40.48 306.73 31.06 C 305.48 20.92 306.52 10.69 305.97 0.51 Z" />
</g>
<g id="#ffffffff">
<path fill="#ffffff" opacity="1.00" d=" M 1125.00 0.50 C 1159.08 0.50 1193.17 0.50 1227.25 0.50 C 1227.25 85.24 1227.26 169.98 1227.24 254.71 C 1259.39 210.44 1291.60 166.21 1323.82 121.99 C 1354.68 122.01 1385.55 122.00 1416.42 122.00 C 1376.66 176.59 1336.93 231.20 1297.19 285.80 C 1336.87 340.49 1376.72 395.07 1416.43 449.74 C 1385.60 449.79 1354.77 449.69 1323.95 449.79 C 1291.61 405.63 1259.55 361.28 1227.26 317.09 C 1227.24 361.06 1227.26 405.03 1227.25 449.00 C 1203.50 449.00 1179.75 449.00 1156.00 449.00 C 1155.98 317.08 1156.04 185.16 1155.97 53.24 C 1145.63 49.57 1135.35 45.76 1125.00 42.13 C 1124.99 28.25 1125.00 14.38 1125.00 0.50 Z" />
<path fill="#ffffff" opacity="1.00" d=" M 1590.00 0.50 C 1624.08 0.50 1658.17 0.50 1692.25 0.50 C 1692.32 28.66 1691.55 56.83 1692.26 84.98 C 1692.24 206.32 1692.26 327.66 1692.25 449.00 C 1668.50 449.00 1644.75 449.00 1621.00 449.00 C 1620.99 317.09 1621.01 185.19 1620.99 53.29 C 1610.65 49.58 1600.34 45.81 1590.00 42.13 C 1589.99 28.25 1590.00 14.37 1590.00 0.50 Z" />
<path fill="#ffffff" opacity="1.00" d=" M 133.21 56.23 C 173.31 28.14 220.20 9.86 268.73 3.34 C 271.13 15.25 268.92 27.43 270.51 39.41 C 271.63 48.87 270.12 58.42 271.34 67.87 C 272.11 73.54 272.12 79.28 271.88 84.99 C 271.42 94.05 273.62 103.00 272.93 112.06 C 272.16 122.74 274.77 133.31 273.94 143.99 C 240.96 151.21 210.29 168.54 187.06 193.03 C 163.42 217.60 147.46 249.43 141.93 283.07 C 136.12 316.86 140.94 352.34 155.43 383.40 C 174.33 424.44 210.15 457.31 252.71 472.54 C 249.60 474.96 246.23 477.01 242.69 478.76 C 206.24 498.63 169.77 518.49 133.34 538.41 C 126.29 542.39 118.91 545.81 112.27 550.47 C 69.41 514.96 36.38 467.72 17.83 415.24 C 6.49 383.51 0.75 349.90 0.00 316.24 L 0.00 306.58 C 0.88 259.47 12.19 212.49 33.70 170.52 C 56.79 125.01 91.32 85.38 133.21 56.23 Z" />
<path fill="#ffffff" opacity="1.00" d=" M 1505.55 12.65 C 1514.62 10.67 1524.39 12.05 1532.58 16.44 C 1542.90 21.96 1550.55 32.29 1552.69 43.82 C 1555.87 59.71 1548.30 77.07 1534.22 85.20 C 1518.37 95.07 1495.83 91.51 1483.89 77.11 C 1472.77 64.52 1471.21 44.67 1480.22 30.49 C 1485.77 21.44 1495.13 14.77 1505.55 12.65 Z" />
<path fill="#ffffff" opacity="1.00" d=" M 620.19 112.25 C 634.08 107.00 646.96 99.43 658.92 90.68 C 659.08 111.23 651.45 131.64 638.24 147.32 C 627.12 160.67 612.15 170.36 596.18 176.91 C 604.00 186.85 610.90 197.48 617.24 208.41 C 597.26 234.80 578.32 261.96 558.53 288.49 C 536.60 318.86 514.41 349.04 492.39 379.34 C 486.28 387.88 480.09 396.38 473.77 404.77 C 469.98 410.09 466.31 415.51 461.98 420.41 C 460.30 414.57 458.64 408.64 455.50 403.39 C 455.62 403.12 455.86 402.57 455.98 402.30 C 442.23 366.47 415.85 335.35 381.97 317.09 C 355.59 302.64 325.10 296.56 295.16 297.91 C 282.86 298.13 270.14 299.34 259.04 305.08 C 249.62 309.62 241.83 316.81 234.84 324.47 C 223.49 312.48 218.82 295.21 220.65 279.01 C 222.61 259.24 233.46 241.14 248.19 228.15 C 263.12 214.80 281.69 206.25 300.75 200.62 C 299.44 188.33 305.31 176.33 313.84 167.78 C 324.90 156.72 339.55 150.23 354.21 145.41 C 362.26 143.01 370.46 141.15 378.72 139.58 C 390.11 137.38 401.68 136.34 413.23 135.35 C 422.80 134.69 432.37 134.32 441.94 133.78 C 481.45 131.50 521.08 130.52 560.41 125.89 C 580.72 123.42 601.05 119.68 620.19 112.25 M 341.60 180.48 C 334.63 184.24 328.01 190.62 327.24 198.91 C 326.92 204.53 331.88 208.87 337.15 209.50 C 346.29 210.48 355.72 208.94 364.13 205.24 C 375.45 200.19 384.28 190.12 387.99 178.33 C 383.13 176.63 377.97 176.22 372.88 175.83 C 362.33 175.44 351.27 175.77 341.60 180.48 Z" />
<path fill="#ffffff" opacity="1.00" d=" M 830.00 126.05 C 855.30 124.09 880.65 122.70 906.02 122.25 C 926.67 121.84 947.43 121.43 967.97 124.02 C 988.36 126.57 1008.73 131.51 1027.02 141.10 C 1041.38 148.55 1054.04 159.37 1063.28 172.69 C 1078.83 195.13 1083.47 223.21 1083.25 250.00 C 1083.25 299.12 1083.24 348.25 1083.26 397.37 C 1093.67 401.13 1104.11 404.85 1114.51 408.65 C 1114.48 422.52 1114.51 436.38 1114.50 450.25 C 1081.83 450.25 1049.17 450.25 1016.50 450.25 C 1016.54 432.10 1016.41 413.95 1016.56 395.80 C 1002.60 420.85 979.36 440.56 952.47 450.48 C 935.42 456.83 917.05 459.28 898.91 458.65 C 878.92 458.04 858.69 454.22 840.84 444.93 C 827.01 438.02 814.95 427.55 806.48 414.60 C 795.55 398.33 791.15 378.38 791.49 358.97 C 791.28 341.35 795.15 323.11 805.47 308.53 C 816.33 293.04 832.69 282.16 850.14 275.34 C 870.13 267.60 891.47 263.87 912.79 262.30 C 928.49 261.12 944.23 261.59 959.96 261.50 C 976.64 261.50 993.32 261.50 1010.00 261.50 C 1010.32 243.57 1010.14 224.37 1000.33 208.64 C 993.65 197.35 982.08 189.62 969.50 186.35 C 958.95 183.53 947.90 182.93 937.03 183.48 C 901.32 183.63 865.65 185.61 830.00 187.58 C 830.00 167.07 830.00 146.56 830.00 126.05 M 904.87 298.72 C 888.59 304.48 875.21 318.18 870.53 334.89 C 866.69 348.76 866.92 364.07 872.53 377.43 C 879.01 392.86 893.00 404.55 909.03 409.02 C 926.92 414.05 946.40 413.71 964.05 407.86 C 977.00 403.75 988.24 394.97 995.77 383.72 C 1006.09 369.01 1009.15 350.65 1009.98 333.07 C 1010.03 319.96 1009.98 306.86 1010.00 293.75 C 991.33 293.75 972.67 293.75 954.00 293.75 C 937.56 293.87 920.54 292.77 904.87 298.72 Z" />
<path fill="#ffffff" opacity="1.00" d=" M 1447.49 122.01 C 1481.58 121.99 1515.66 122.00 1549.75 122.00 C 1549.75 231.00 1549.75 340.00 1549.75 448.99 C 1526.08 449.01 1502.42 449.00 1478.75 449.00 C 1478.75 357.60 1478.75 266.21 1478.75 174.82 C 1468.35 171.01 1457.93 167.25 1447.50 163.52 C 1447.49 149.68 1447.50 135.85 1447.49 122.01 Z" />
<path fill="#ffffff" opacity="1.00" d=" M 1775.75 126.06 C 1801.14 124.09 1826.59 122.69 1852.05 122.25 C 1876.02 121.72 1900.17 121.42 1923.89 125.48 C 1945.37 129.07 1966.78 135.80 1984.80 148.34 C 2001.01 159.56 2013.59 175.87 2020.41 194.37 C 2027.07 212.09 2029.10 231.17 2029.26 249.99 C 2029.24 299.14 2029.24 348.30 2029.26 397.45 C 2039.61 401.11 2049.91 404.91 2060.26 408.59 C 2060.24 422.47 2060.26 436.36 2060.25 450.25 C 2027.58 450.25 1994.91 450.25 1962.25 450.25 C 1962.26 432.19 1962.23 414.13 1962.27 396.08 C 1952.98 412.79 1939.43 427.01 1923.57 437.62 C 1905.17 449.96 1883.38 456.87 1861.33 458.34 C 1842.62 459.58 1823.60 457.94 1805.60 452.59 C 1785.97 446.67 1767.46 435.44 1755.23 418.73 C 1743.92 403.98 1738.40 385.45 1737.47 367.04 C 1736.40 348.39 1738.88 328.82 1748.68 312.57 C 1758.30 296.72 1773.73 285.13 1790.49 277.64 C 1809.27 269.39 1829.59 265.23 1849.91 263.05 C 1873.53 260.60 1897.31 261.77 1921.01 261.50 C 1932.58 261.50 1944.16 261.49 1955.74 261.51 C 1955.65 251.94 1956.23 242.31 1954.64 232.83 C 1952.71 219.75 1947.27 206.74 1937.20 197.84 C 1925.05 186.91 1908.14 183.59 1892.26 183.33 C 1853.39 183.48 1814.53 185.33 1775.72 187.61 C 1775.78 167.09 1775.73 146.58 1775.75 126.06 M 1832.98 309.07 C 1821.66 318.63 1815.02 333.02 1814.07 347.72 C 1812.29 364.97 1817.86 383.29 1830.75 395.26 C 1845.18 409.33 1866.43 413.37 1885.93 412.35 C 1904.36 411.45 1923.55 405.18 1935.96 390.90 C 1950.18 375.65 1954.97 354.28 1955.75 334.03 C 1955.72 320.59 1955.80 307.16 1955.71 293.73 C 1937.47 293.78 1919.24 293.73 1901.01 293.75 C 1890.97 293.78 1880.92 293.55 1870.90 294.31 C 1857.24 295.53 1843.45 299.94 1832.98 309.07 Z" />
<path fill="#ffffff" opacity="1.00" d=" M 1154.25 469.25 C 1158.33 469.25 1162.41 469.25 1166.50 469.25 C 1166.46 484.97 1166.58 500.69 1166.44 516.41 C 1171.12 507.41 1179.95 500.80 1189.93 498.94 C 1198.63 497.42 1208.01 498.04 1215.95 502.20 C 1225.59 506.82 1232.69 515.84 1235.95 525.93 C 1238.42 532.96 1238.48 540.49 1238.18 547.85 C 1237.32 558.65 1232.62 569.20 1224.81 576.76 C 1211.07 589.97 1186.98 591.14 1172.58 578.37 C 1168.85 575.05 1166.02 570.81 1163.96 566.29 C 1164.05 572.35 1163.97 578.43 1164.00 584.50 C 1160.74 584.50 1157.49 584.50 1154.25 584.50 C 1154.25 546.08 1154.25 507.67 1154.25 469.25 M 1188.51 509.69 C 1177.84 512.02 1168.83 520.80 1166.72 531.59 C 1165.50 536.96 1166.16 542.50 1165.99 547.96 C 1165.92 557.47 1171.07 566.84 1179.20 571.81 C 1185.84 576.12 1194.15 577.36 1201.89 576.10 C 1209.57 574.89 1216.47 570.06 1220.58 563.52 C 1226.34 554.48 1227.47 543.06 1225.20 532.73 C 1223.47 524.82 1218.78 517.51 1211.91 513.13 C 1205.03 508.79 1196.35 507.84 1188.51 509.69 Z" />
<path fill="#ffffff" opacity="1.00" d=" M 1590.00 475.25 C 1596.41 475.25 1602.83 475.25 1609.25 475.25 C 1609.25 483.67 1609.25 492.08 1609.25 500.50 C 1618.33 500.50 1627.41 500.49 1636.50 500.50 C 1636.49 505.08 1636.50 509.66 1636.50 514.25 C 1627.41 514.25 1618.33 514.25 1609.25 514.25 C 1609.25 528.51 1609.24 542.78 1609.26 557.04 C 1609.29 562.55 1612.25 568.18 1617.36 570.57 C 1623.33 573.41 1630.14 571.85 1636.50 572.26 C 1636.49 577.92 1636.50 583.58 1636.50 589.25 C 1624.82 589.07 1612.28 590.03 1601.62 584.40 C 1592.78 579.43 1590.51 568.54 1590.05 559.22 C 1589.92 544.23 1590.04 529.24 1590.00 514.25 C 1585.24 514.25 1580.49 514.25 1575.75 514.25 C 1575.74 509.66 1575.74 505.08 1575.75 500.50 C 1580.49 500.49 1585.24 500.50 1590.00 500.50 C 1590.00 492.08 1589.99 483.66 1590.00 475.25 Z" />
<path fill="#ffffff" opacity="1.00" d=" M 1415.59 497.83 C 1426.90 496.34 1438.89 497.59 1449.10 502.95 C 1458.26 507.69 1465.61 515.83 1469.38 525.44 C 1472.81 533.45 1472.77 542.31 1472.40 550.86 C 1471.60 559.52 1468.41 568.04 1462.83 574.76 C 1455.35 584.04 1443.83 589.50 1432.10 590.76 C 1417.06 592.63 1400.57 589.46 1389.24 578.82 C 1380.02 570.23 1375.29 557.46 1375.73 544.96 C 1375.39 534.99 1377.75 524.71 1383.63 516.54 C 1390.89 506.02 1403.04 499.46 1415.59 497.83 M 1417.52 514.80 C 1407.95 516.80 1400.45 524.90 1398.13 534.24 C 1395.27 545.34 1396.84 558.40 1404.90 567.03 C 1414.97 576.82 1433.10 577.06 1443.18 567.17 C 1449.95 560.13 1452.31 549.75 1451.29 540.24 C 1450.51 532.49 1447.13 524.76 1440.98 519.80 C 1434.57 514.44 1425.53 512.98 1417.52 514.80 Z" />
<path fill="#ffffff" opacity="1.00" d=" M 1502.70 504.02 C 1511.89 498.05 1523.31 496.45 1534.06 497.58 C 1543.53 498.53 1552.94 502.49 1559.46 509.57 C 1564.73 514.92 1567.88 522.11 1568.95 529.49 C 1562.04 529.53 1555.13 529.46 1548.23 529.53 C 1546.61 523.20 1542.00 517.42 1535.60 515.53 C 1527.99 513.31 1518.85 514.27 1512.94 519.94 C 1507.24 525.29 1505.01 533.27 1504.55 540.86 C 1504.18 548.76 1504.87 557.13 1508.97 564.10 C 1516.49 577.26 1538.73 577.60 1546.53 564.56 C 1547.69 562.68 1548.39 560.57 1549.10 558.49 C 1555.96 558.51 1562.82 558.49 1569.70 558.50 C 1568.77 566.38 1565.22 573.96 1559.46 579.46 C 1551.08 588.06 1538.66 591.46 1526.92 591.25 C 1519.62 591.02 1512.18 589.78 1505.70 586.24 C 1494.71 580.77 1487.10 569.76 1484.62 557.87 C 1482.82 549.35 1482.82 540.46 1484.43 531.91 C 1486.73 520.80 1492.92 510.11 1502.70 504.02 Z" />
<path fill="#ffffff" opacity="1.00" d=" M 1781.71 501.87 C 1791.15 497.05 1802.32 496.87 1812.49 499.24 C 1821.87 501.42 1829.95 507.87 1834.90 516.03 C 1839.99 524.39 1841.84 534.36 1841.51 544.05 C 1841.79 553.04 1840.37 562.25 1836.24 570.31 C 1832.26 578.51 1825.18 585.22 1816.64 588.48 C 1808.86 591.36 1800.21 591.79 1792.15 589.93 C 1781.45 587.45 1772.52 579.57 1767.71 569.83 C 1767.79 587.31 1767.73 604.78 1767.74 622.25 C 1760.66 622.25 1753.58 622.25 1746.50 622.25 C 1746.49 586.49 1746.50 550.73 1746.50 514.97 C 1743.74 513.96 1740.97 512.99 1738.24 511.94 C 1738.25 508.13 1738.24 504.31 1738.25 500.50 C 1747.49 500.49 1756.74 500.50 1766.00 500.50 C 1766.02 507.38 1765.93 514.26 1766.08 521.14 C 1768.68 513.10 1774.09 505.77 1781.71 501.87 M 1789.57 514.74 C 1783.49 515.80 1778.03 519.52 1774.61 524.62 C 1769.68 531.77 1768.35 540.87 1769.43 549.36 C 1770.32 556.90 1773.63 564.46 1779.66 569.28 C 1788.75 576.64 1803.44 576.07 1811.62 567.55 C 1819.10 560.22 1821.16 549.01 1820.01 538.94 C 1819.11 530.97 1815.30 523.02 1808.59 518.37 C 1803.12 514.55 1796.04 513.49 1789.57 514.74 Z" />
<path fill="#ffffff" opacity="1.00" d=" M 1958.17 509.06 C 1964.46 501.46 1974.64 498.63 1984.13 497.94 C 1994.83 497.25 2006.26 498.54 2015.42 504.54 C 2021.64 508.42 2025.52 515.27 2026.38 522.48 C 2020.22 522.52 2014.06 522.50 2007.92 522.49 C 2005.82 517.21 2001.03 513.32 1995.48 512.23 C 1988.56 510.83 1980.52 511.09 1974.87 515.80 C 1970.02 519.94 1970.38 528.67 1975.98 531.99 C 1981.99 535.70 1989.37 535.47 1996.15 536.32 C 2005.78 537.44 2015.86 540.16 2022.99 547.12 C 2029.00 553.14 2030.19 562.49 2028.21 570.47 C 2026.27 577.79 2020.42 583.51 2013.62 586.51 C 2004.29 590.81 1993.76 591.15 1983.67 590.60 C 1975.17 589.87 1966.40 587.76 1959.68 582.25 C 1954.58 578.25 1951.49 572.12 1950.59 565.77 C 1956.72 565.73 1962.86 565.75 1969.01 565.76 C 1971.60 571.40 1977.04 575.54 1983.17 576.56 C 1989.99 577.80 1997.37 577.70 2003.78 574.73 C 2007.21 573.16 2010.09 570.02 2010.61 566.18 C 2011.61 560.90 2007.89 555.76 2003.04 553.97 C 1992.93 550.03 1981.65 551.81 1971.44 548.18 C 1963.37 545.72 1955.86 539.71 1953.85 531.22 C 1952.22 523.72 1953.10 515.13 1958.17 509.06 Z" />
<path fill="#ffffff" opacity="1.00" d=" M 1656.75 500.06 C 1667.83 499.35 1678.96 498.64 1690.07 499.15 C 1699.88 499.76 1710.31 502.19 1717.47 509.39 C 1723.01 515.10 1725.41 523.17 1725.51 531.00 C 1725.51 545.18 1725.48 559.36 1725.52 573.54 C 1728.34 574.52 1731.15 575.57 1733.99 576.55 C 1734.00 580.36 1733.99 584.18 1734.00 588.00 C 1725.08 588.00 1716.16 588.00 1707.25 588.00 C 1707.26 583.28 1707.21 578.56 1707.29 573.85 C 1702.02 582.84 1692.33 588.99 1681.99 590.07 C 1673.23 590.86 1663.78 589.86 1656.46 584.60 C 1649.87 580.04 1646.21 571.94 1646.47 564.01 C 1646.16 557.98 1647.75 551.52 1652.16 547.18 C 1657.53 541.34 1665.48 538.93 1673.09 537.68 C 1683.81 536.05 1694.69 537.00 1705.49 536.75 C 1705.70 531.37 1705.51 525.41 1701.88 521.08 C 1698.32 516.74 1692.31 515.66 1686.99 515.73 C 1676.90 516.00 1666.81 516.25 1656.75 517.02 C 1656.74 511.36 1656.75 505.71 1656.75 500.06 M 1671.69 550.63 C 1664.71 557.34 1666.17 570.71 1674.95 575.23 C 1683.77 579.76 1696.78 578.21 1702.18 569.17 C 1706.60 562.18 1705.31 553.59 1705.50 545.75 C 1698.68 545.74 1691.88 545.76 1685.07 545.74 C 1680.24 545.70 1675.12 547.07 1671.69 550.63 Z" />
<path fill="#ffffff" opacity="1.00" d=" M 1913.01 500.49 C 1920.00 500.50 1926.99 500.50 1933.99 500.49 C 1934.08 524.88 1933.84 549.27 1934.11 573.65 C 1936.91 574.58 1939.69 575.62 1942.50 576.60 C 1942.49 580.40 1942.49 584.20 1942.50 588.00 C 1933.24 588.00 1923.99 588.00 1914.75 588.00 C 1914.74 581.96 1914.75 575.93 1914.74 569.90 C 1911.99 577.57 1906.38 584.32 1898.92 587.76 C 1891.99 591.02 1884.04 591.33 1876.58 590.27 C 1868.53 589.00 1861.33 583.67 1857.87 576.29 C 1852.92 566.28 1853.15 554.82 1853.25 543.93 C 1853.25 529.45 1853.24 514.97 1853.26 500.49 C 1860.25 500.50 1867.25 500.49 1874.25 500.50 C 1874.25 517.66 1874.25 534.83 1874.25 552.00 C 1874.26 557.25 1875.38 562.88 1879.15 566.80 C 1886.98 575.65 1903.05 574.36 1909.52 564.50 C 1913.10 559.43 1913.11 552.98 1913.00 547.04 C 1913.00 531.52 1912.99 516.01 1913.01 500.49 Z" />
<path fill="#ffffff" opacity="1.00" d=" M 1248.56 501.00 C 1252.70 500.99 1256.85 501.00 1261.01 501.00 C 1269.55 524.75 1278.00 548.53 1286.59 572.26 C 1287.54 572.26 1289.44 572.26 1290.39 572.26 C 1297.76 548.50 1305.21 524.78 1312.53 501.01 C 1316.47 500.99 1320.41 500.99 1324.36 501.01 C 1314.57 532.38 1304.73 563.72 1294.86 595.06 C 1292.50 602.88 1287.53 610.36 1279.89 613.81 C 1271.58 617.75 1262.17 616.95 1253.25 617.00 C 1253.24 613.41 1253.24 609.83 1253.25 606.25 C 1261.35 605.92 1270.51 607.64 1277.55 602.60 C 1283.58 597.67 1284.82 589.49 1287.18 582.50 C 1284.40 582.50 1281.63 582.50 1278.86 582.50 C 1268.78 555.33 1258.62 528.18 1248.56 501.00 Z" />
<path fill="#ffffff" opacity="1.00" d=" M 2040.39 569.54 C 2046.38 566.38 2054.48 570.20 2055.78 576.86 C 2057.49 583.42 2051.75 590.59 2044.92 590.03 C 2038.73 590.18 2033.57 584.08 2034.48 578.00 C 2034.79 574.42 2037.15 571.10 2040.39 569.54 Z" />
</g>
<g id="#fff4f8ff">
<path fill="#fff4f8" opacity="1.00" d=" M 268.73 3.34 C 275.14 2.47 281.57 1.80 288.02 1.34 C 287.42 9.26 289.32 17.07 289.08 24.99 C 288.98 31.45 288.68 37.93 289.50 44.36 C 290.29 50.53 290.10 56.75 289.94 62.96 C 289.75 69.00 290.92 74.98 291.03 81.02 C 291.18 87.67 290.57 94.33 291.29 100.96 C 293.09 114.21 290.60 127.70 293.59 140.84 C 286.98 141.52 280.42 142.56 273.94 143.99 C 274.77 133.31 272.16 122.74 272.93 112.06 C 273.62 103.00 271.42 94.05 271.88 84.99 C 272.12 79.28 272.11 73.54 271.34 67.87 C 270.12 58.42 271.63 48.87 270.51 39.41 C 268.92 27.43 271.13 15.25 268.73 3.34 Z" />
</g>
<g id="#ffd4e2ff">
<path fill="#ffd4e2" opacity="1.00" d=" M 339.77 1.83 C 351.24 2.89 362.65 4.58 373.93 6.91 C 373.19 18.96 375.42 30.92 374.90 42.97 C 374.57 52.01 376.50 60.97 375.91 70.02 C 375.32 80.04 377.53 89.97 376.97 100.00 C 376.62 105.68 377.02 111.36 377.63 117.00 C 378.44 124.51 376.99 132.15 378.72 139.58 C 370.46 141.15 362.26 143.01 354.21 145.41 C 351.08 144.79 347.98 143.99 344.86 143.35 C 345.02 137.85 345.05 132.33 344.35 126.86 C 343.16 117.74 344.51 108.53 343.51 99.40 C 342.71 92.62 342.77 85.79 342.99 78.98 C 343.21 72.27 341.81 65.64 341.83 58.94 C 341.83 51.89 342.18 44.81 341.35 37.79 C 340.73 32.56 340.67 27.28 340.98 22.03 C 341.45 15.26 340.14 8.56 339.77 1.83 Z" />
</g>
<g id="#ffc7daff">
<path fill="#ffc7da" opacity="1.00" d=" M 373.93 6.91 C 383.55 8.82 393.04 11.33 402.42 14.18 C 403.75 25.78 402.28 37.47 403.73 49.06 C 404.91 57.95 403.15 66.92 404.40 75.80 C 405.84 86.54 404.23 97.41 405.59 108.15 C 406.66 116.91 405.72 125.73 406.27 134.51 C 408.58 134.83 410.90 135.17 413.23 135.35 C 401.68 136.34 390.11 137.38 378.72 139.58 C 376.99 132.15 378.44 124.51 377.63 117.00 C 377.02 111.36 376.62 105.68 376.97 100.00 C 377.53 89.97 375.32 80.04 375.91 70.02 C 376.50 60.97 374.57 52.01 374.90 42.97 C 375.42 30.92 373.19 18.96 373.93 6.91 Z" />
</g>
<g id="#ffb9d1ff">
<path fill="#ffb9d1" opacity="1.00" d=" M 402.42 14.18 C 415.03 18.05 427.39 22.76 439.40 28.22 C 437.53 39.15 440.51 50.05 439.85 61.01 C 439.33 70.03 441.20 78.97 440.87 87.99 C 440.74 94.40 440.70 100.84 441.49 107.22 C 442.27 116.05 441.61 124.93 441.94 133.78 C 432.37 134.32 422.80 134.69 413.23 135.35 C 410.90 135.17 408.58 134.83 406.27 134.51 C 405.72 125.73 406.66 116.91 405.59 108.15 C 404.23 97.41 405.84 86.54 404.40 75.80 C 403.15 66.92 404.91 57.95 403.73 49.06 C 402.28 37.47 403.75 25.78 402.42 14.18 Z" />
</g>
<g id="#ffafcaff">
<path fill="#ffafca" opacity="1.00" d=" M 439.40 28.22 C 487.15 49.81 529.15 83.85 560.41 125.89 C 521.08 130.52 481.45 131.50 441.94 133.78 C 441.61 124.93 442.27 116.05 441.49 107.22 C 440.70 100.84 440.74 94.40 440.87 87.99 C 441.20 78.97 439.33 70.03 439.85 61.01 C 440.51 50.05 437.53 39.15 439.40 28.22 Z" />
<path fill="#ffafca" opacity="1.00" d=" M 456.90 501.86 C 459.99 500.02 463.13 498.26 466.49 496.98 C 466.73 497.77 467.19 499.35 467.42 500.14 C 465.68 513.70 462.48 527.10 457.70 539.91 C 450.02 559.60 439.37 578.38 424.74 593.75 C 421.18 597.60 416.89 600.73 413.59 604.82 C 360.64 623.39 302.67 627.04 247.75 615.76 C 283.87 596.75 319.38 576.62 355.32 557.27 C 389.19 538.82 423.02 520.30 456.90 501.86 Z" />
</g>
<g id="#fff2f6ff">
<path fill="#fff2f6" opacity="1.00" d=" M 558.53 288.49 C 578.32 261.96 597.26 234.80 617.24 208.41 C 625.50 222.59 632.59 237.43 638.61 252.68 C 581.91 330.11 525.56 407.79 468.96 485.29 C 469.22 481.53 469.16 477.77 469.16 474.02 C 469.33 464.52 468.40 455.06 467.22 445.65 C 466.34 437.07 464.01 428.75 461.98 420.41 C 466.31 415.51 469.98 410.09 473.77 404.77 C 480.09 396.38 486.28 387.88 492.39 379.34 C 514.41 349.04 536.60 318.86 558.53 288.49 Z" />
</g>
<g id="#ffe1ebff">
<path fill="#ffe1eb" opacity="1.00" d=" M 638.61 252.68 C 642.35 262.18 645.56 271.88 648.34 281.70 C 627.01 310.00 606.54 338.96 585.51 367.48 C 552.34 412.99 519.20 458.52 486.00 504.00 C 476.71 516.61 467.75 529.47 458.24 541.90 C 458.10 541.40 457.83 540.41 457.70 539.91 C 462.48 527.10 465.68 513.70 467.42 500.14 C 468.08 495.20 468.34 490.23 468.96 485.29 C 525.56 407.79 581.91 330.11 638.61 252.68 Z" />
</g>
<g id="#ffd4e3ff">
<path fill="#ffd4e3" opacity="1.00" d=" M 585.51 367.48 C 606.54 338.96 627.01 310.00 648.34 281.70 C 652.22 295.67 655.10 309.92 656.74 324.33 C 652.24 328.08 649.19 333.11 645.83 337.81 C 637.53 349.19 629.13 360.48 621.01 371.99 C 619.15 374.85 616.71 377.23 614.33 379.65 C 613.77 381.40 613.34 383.20 612.90 384.99 C 608.32 387.75 605.88 392.65 602.75 396.78 C 567.98 444.65 533.04 492.40 498.24 540.26 C 491.00 550.03 484.14 560.10 476.60 569.65 C 474.95 571.72 473.88 574.16 472.96 576.62 C 454.26 588.12 434.29 597.54 413.59 604.82 C 416.89 600.73 421.18 597.60 424.74 593.75 C 439.37 578.38 450.02 559.60 457.70 539.91 C 457.83 540.41 458.10 541.40 458.24 541.90 C 467.75 529.47 476.71 516.61 486.00 504.00 C 519.20 458.52 552.34 412.99 585.51 367.48 Z" />
<path fill="#ffd4e3" opacity="1.00" d=" M 455.50 403.39 C 458.64 408.64 460.30 414.57 461.98 420.41 C 464.01 428.75 466.34 437.07 467.22 445.65 C 430.87 465.03 394.82 484.97 358.65 504.70 C 322.46 524.49 286.23 544.21 250.02 563.98 C 229.81 575.25 209.18 585.80 189.20 597.47 C 180.00 593.50 170.94 589.21 162.17 584.36 C 168.01 580.27 174.49 577.26 180.69 573.76 C 237.88 542.58 295.09 511.41 352.22 480.14 C 353.32 479.36 353.95 478.11 354.72 477.04 C 396.01 466.26 432.48 439.24 455.50 403.39 Z" />
</g>
<g id="#ffc5d9ff">
<path fill="#ffc5d9" opacity="1.00" d=" M 645.83 337.81 C 649.19 333.11 652.24 328.08 656.74 324.33 C 659.21 345.98 658.93 367.98 655.62 389.53 C 651.19 393.28 648.40 398.42 644.93 402.98 C 642.35 406.48 639.78 410.00 637.08 413.41 C 631.18 401.16 623.78 389.49 614.33 379.65 C 616.71 377.23 619.15 374.85 621.01 371.99 C 629.13 360.48 637.53 349.19 645.83 337.81 Z" />
<path fill="#ffc5d9" opacity="1.00" d=" M 358.65 504.70 C 394.82 484.97 430.87 465.03 467.22 445.65 C 468.40 455.06 469.33 464.52 469.16 474.02 C 397.24 513.56 325.04 552.60 253.09 592.08 C 242.90 597.89 232.22 602.88 222.47 609.41 C 211.15 606.11 200.06 602.05 189.20 597.47 C 209.18 585.80 229.81 575.25 250.02 563.98 C 286.23 544.21 322.46 524.49 358.65 504.70 Z" />
</g>
<g id="#ffc8dbff">
<path fill="#ffc8db" opacity="1.00" d=" M 602.75 396.78 C 605.88 392.65 608.32 387.75 612.90 384.99 C 594.09 464.06 542.41 534.50 472.96 576.62 C 473.88 574.16 474.95 571.72 476.60 569.65 C 484.14 560.10 491.00 550.03 498.24 540.26 C 533.04 492.40 567.98 444.65 602.75 396.78 Z" />
</g>
<g id="#ffb8d0ff">
<path fill="#ffb8d0" opacity="1.00" d=" M 644.93 402.98 C 648.40 398.42 651.19 393.28 655.62 389.53 C 653.38 404.40 649.63 419.04 644.67 433.23 C 642.56 426.47 640.18 419.79 637.08 413.41 C 639.78 410.00 642.35 406.48 644.93 402.98 Z" />
</g>
<g id="#fff6f9ff">
<path fill="#fff6f9" opacity="1.00" d=" M 252.71 472.54 C 261.70 475.75 270.94 478.29 280.34 479.96 C 276.45 482.68 272.30 485.00 268.08 487.16 C 225.61 510.35 183.11 533.50 140.63 556.67 C 136.69 558.68 132.64 560.62 129.47 563.79 C 123.59 559.54 117.82 555.13 112.27 550.47 C 118.91 545.81 126.29 542.39 133.34 538.41 C 169.77 518.49 206.24 498.63 242.69 478.76 C 246.23 477.01 249.60 474.96 252.71 472.54 Z" />
</g>
<g id="#ffb7cfff">
<path fill="#ffb7cf" opacity="1.00" d=" M 253.09 592.08 C 325.04 552.60 397.24 513.56 469.16 474.02 C 469.16 477.77 469.22 481.53 468.96 485.29 C 468.34 490.23 468.08 495.20 467.42 500.14 C 467.19 499.35 466.73 497.77 466.49 496.98 C 463.13 498.26 459.99 500.02 456.90 501.86 C 423.02 520.30 389.19 538.82 355.32 557.27 C 319.38 576.62 283.87 596.75 247.75 615.76 C 239.24 613.95 230.80 611.89 222.47 609.41 C 232.22 602.88 242.90 597.89 253.09 592.08 Z" />
</g>
<g id="#ffe5eeff">
<path fill="#ffe5ee" opacity="1.00" d=" M 280.34 479.96 C 304.96 484.44 330.52 483.40 354.72 477.04 C 353.95 478.11 353.32 479.36 352.22 480.14 C 295.09 511.41 237.88 542.58 180.69 573.76 C 174.49 577.26 168.01 580.27 162.17 584.36 C 150.85 578.21 139.91 571.34 129.47 563.79 C 132.64 560.62 136.69 558.68 140.63 556.67 C 183.11 533.50 225.61 510.35 268.08 487.16 C 272.30 485.00 276.45 482.68 280.34 479.96 Z" />
</g>
</svg>
