<?xml version="1.0" standalone="no"?>
<!DOCTYPE svg PUBLIC "-//W3C//DTD SVG 20010904//EN"
 "http://www.w3.org/TR/2001/REC-SVG-20010904/DTD/svg10.dtd">
<svg version="1.0" xmlns="http://www.w3.org/2000/svg"
 width="500.000000pt" height="500.000000pt" viewBox="0 0 500.000000 500.000000"
 preserveAspectRatio="xMidYMid meet">

<g transform="translate(0.000000,500.000000) scale(0.100000,-0.100000)"
fill="#000000" stroke="none">
<path d="M2395 4714 c-138 -11 -261 -28 -365 -51 -447 -99 -864 -348 -1162
-693 -133 -154 -226 -294 -315 -475 -86 -174 -141 -340 -185 -550 -30 -143
-32 -162 -32 -385 -1 -212 7 -321 30 -402 4 -14 1 -16 -12 -11 -53 20 43 -304
157 -532 269 -533 701 -921 1260 -1129 550 -204 1195 -175 1734 78 466 219
879 639 1083 1100 140 318 201 638 189 986 -12 317 -68 548 -198 814 -41 84
-63 92 -34 11 4 -11 -15 18 -42 65 -122 212 -302 444 -459 588 -318 294 -765
508 -1189 567 -104 15 -373 26 -460 19z m502 -50 c-3 -3 -12 -4 -19 -1 -8 3
-5 6 6 6 11 1 17 -2 13 -5z m228 -50 c149 -43 373 -130 362 -140 -3 -3 -22 3
-44 14 -68 34 -274 105 -408 139 -72 18 -108 31 -80 27 28 -3 104 -21 170 -40z
m-945 -120 c0 -3 -30 -19 -67 -36 -204 -92 -363 -245 -458 -443 -57 -118 -79
-200 -78 -303 0 -77 -1 -81 -15 -60 -9 13 -29 36 -45 51 -66 65 -109 184 -87
241 9 25 9 27 -4 17 -30 -25 -68 -153 -73 -247 -6 -102 13 -188 67 -294 15
-30 43 -93 61 -140 18 -47 37 -86 41 -88 4 -2 8 -11 9 -20 1 -23 20 26 23 58
2 14 8 36 15 49 8 14 9 21 2 17 -7 -5 -9 -1 -5 8 3 9 10 14 14 11 4 -3 7 1 7
8 -2 20 66 147 79 147 6 0 24 18 40 41 15 23 74 85 130 138 158 150 318 234
541 288 146 34 413 44 548 18 270 -49 503 -160 710 -337 229 -197 379 -463
432 -768 19 -110 26 -468 11 -595 l-7 -60 15 50 c7 28 19 110 26 183 39 423
-105 835 -392 1123 -215 216 -432 336 -745 411 -118 28 -362 35 -485 14 -205
-35 -396 -109 -529 -203 -36 -26 -115 -95 -175 -153 -60 -58 -100 -91 -89 -75
29 42 167 173 237 225 230 169 573 258 886 229 449 -42 849 -285 1096 -666 54
-84 90 -162 133 -287 64 -185 75 -259 76 -501 0 -231 -15 -330 -77 -520 -127
-391 -431 -738 -806 -920 -614 -299 -1426 -243 -1857 129 -120 103 -204 211
-236 301 -10 30 -19 61 -19 68 0 21 -37 50 -55 43 -49 -18 -61 -181 -21 -279
44 -105 90 -170 196 -277 207 -207 509 -373 820 -451 164 -40 247 -51 450 -58
l205 -8 -172 -1 c-206 -2 -346 15 -513 63 -283 81 -480 183 -713 368 -192 152
-327 357 -327 497 0 77 50 170 92 170 23 0 44 -33 64 -101 48 -165 231 -347
469 -465 113 -56 148 -67 125 -39 -16 20 3 49 88 135 35 35 71 78 79 95 22 42
43 124 33 130 -4 3 -6 15 -3 28 4 17 -3 12 -31 -20 -37 -42 -91 -68 -123 -60
-11 3 -7 5 10 6 19 1 39 13 59 36 17 19 36 32 41 28 6 -3 7 -1 3 5 -4 7 7 20
28 33 19 11 38 30 42 41 3 12 25 42 49 67 80 87 125 152 140 203 17 59 20 134
5 143 -5 3 -10 -3 -10 -13 0 -23 -20 -30 -117 -38 l-72 -7 -16 39 c-17 41 -62
94 -79 94 -6 0 0 -7 12 -16 25 -17 62 -84 62 -111 -1 -11 -6 -7 -14 12 -7 17
-28 44 -47 59 -28 24 -39 27 -71 22 -40 -7 -51 6 -20 23 9 6 12 11 5 11 -6 0
-24 -11 -40 -24 -27 -22 -30 -23 -40 -8 -5 9 -42 42 -80 72 -68 53 -118 108
-107 119 2 3 26 -16 52 -41 44 -42 133 -108 147 -108 3 0 -26 27 -64 60 -38
32 -78 71 -90 86 -18 23 -19 28 -6 41 38 37 1 173 -66 245 -40 43 -43 37 -5
-14 29 -40 12 -46 -32 -11 -91 72 -230 153 -264 153 -5 0 -16 7 -24 15 -14 13
-11 15 24 15 66 0 43 27 -104 123 -73 49 -134 93 -134 99 0 6 11 3 25 -6 18
-12 25 -13 25 -4 0 7 7 3 15 -8 20 -30 200 -152 183 -125 -7 12 -16 21 -20 21
-5 0 -8 7 -8 15 0 8 -4 15 -9 15 -11 0 -79 65 -144 139 -50 56 -57 59 -31 10
23 -46 10 -46 -17 0 -13 22 -58 75 -99 118 -116 122 -124 137 -20 37 65 -62
112 -98 150 -114 30 -14 84 -41 120 -62 100 -59 24 1 -95 74 -133 81 -253 200
-296 291 -17 37 -37 101 -44 144 -16 86 -20 213 -7 213 5 0 14 -22 21 -49 35
-136 102 -225 261 -346 52 -40 102 -81 111 -91 9 -11 48 -73 87 -139 66 -112
162 -236 147 -190 -22 67 -55 188 -52 191 8 8 69 -208 64 -226 -3 -11 1 -21 9
-24 25 -10 16 48 -26 166 -22 62 -40 119 -40 127 0 8 -23 46 -50 85 -38 53
-41 60 -13 28 30 -36 159 -152 283 -256 14 -12 -45 49 -131 134 -85 85 -177
180 -204 211 -28 30 -69 71 -93 90 l-44 35 -5 135 c-6 159 11 282 53 367 26
53 157 202 168 191 3 -3 -12 -39 -34 -80 -51 -98 -70 -173 -70 -279 0 -165 57
-289 183 -403 60 -54 86 -86 104 -127 55 -124 54 -123 68 -103 22 33 38 93 27
106 -6 7 -17 35 -25 62 -8 28 -34 91 -57 140 -109 233 -125 302 -101 440 49
279 336 548 733 685 85 29 108 34 108 24z m1345 -42 c-3 -3 -11 0 -18 7 -9 10
-8 11 6 5 10 -3 15 -9 12 -12z m-455 -27 c552 -115 1025 -473 1289 -975 145
-275 223 -588 220 -875 l-2 -110 -8 125 c-11 165 -24 255 -59 400 -105 429
-381 839 -730 1084 -87 61 -100 69 -100 62 0 -2 30 -26 68 -52 251 -177 470
-433 596 -697 136 -284 226 -727 147 -727 -9 0 -21 -8 -28 -19 -8 -12 -20 -17
-35 -14 -14 3 -31 -4 -45 -17 -20 -18 -23 -31 -23 -98 0 -353 -181 -831 -431
-1138 -340 -418 -945 -682 -1519 -661 -370 14 -697 117 -1000 316 -90 59 -294
253 -287 274 2 6 13 14 25 17 11 3 32 15 45 27 l25 21 33 -35 c103 -106 281
-234 398 -285 248 -108 471 -153 756 -151 320 1 604 68 880 206 234 117 488
347 634 575 18 28 35 52 38 52 2 0 2 -4 -1 -8 -8 -13 28 -39 63 -47 17 -3 35
-14 41 -23 6 -11 9 -12 10 -4 0 7 4 11 9 7 34 -20 166 282 214 490 43 182 50
261 44 459 -9 262 -51 441 -157 663 -255 536 -798 889 -1426 929 -235 14 -534
-46 -739 -148 -120 -60 -269 -154 -323 -203 -54 -49 -55 -49 -48 -20 12 50 67
167 102 220 87 131 159 184 356 259 232 88 383 111 673 102 110 -3 216 -8 235
-10 19 -3 6 2 -30 10 -99 23 -414 24 -556 1 -152 -24 -273 -58 -385 -107 -119
-52 -129 -55 -104 -35 72 60 274 134 445 164 167 29 168 29 375 26 157 -3 211
-8 315 -30z m585 -40 c11 -9 2 -7 -20 6 -22 12 -44 26 -50 32 -16 15 48 -20
70 -38z m115 -71 c0 -2 -9 0 -20 6 -11 6 -20 13 -20 16 0 2 9 0 20 -6 11 -6
20 -13 20 -16z m-2150 -669 c1 -18 22 -85 45 -140 8 -17 7 -18 -7 -7 -15 12
-39 89 -52 162 -4 25 -3 31 4 20 5 -8 10 -24 10 -35z m-495 -416 l60 -63 -65
59 c-98 88 -99 89 -75 77 11 -6 47 -39 80 -73z m-305 -335 c52 -27 97 -50 99
-51 2 -2 2 -5 -1 -8 -11 -11 -116 37 -203 93 -114 73 -115 74 -115 69 0 -9
124 -101 173 -129 29 -16 43 -27 32 -24 -11 3 -33 8 -50 12 -16 4 -48 19 -70
33 -22 14 -43 24 -47 23 -7 -2 -93 123 -104 152 -4 9 38 -14 92 -52 55 -38
142 -91 194 -118z m-274 -98 c45 -13 95 -32 110 -41 16 -9 22 -14 14 -12 -103
30 -173 48 -176 44 -3 -2 44 -24 103 -47 122 -47 129 -51 82 -44 -19 3 -45 1
-59 -4 -22 -8 -34 -2 -100 51 -41 33 -79 64 -84 69 -18 15 27 8 110 -16z m326
-101 c37 -20 97 -47 135 -61 77 -29 113 -50 113 -65 0 -8 -4 -8 -12 -2 -7 6
-31 16 -53 23 -97 30 -241 109 -300 164 l-60 57 55 -41 c30 -22 85 -56 122
-75z m318 -35 c25 -16 38 -30 31 -30 -14 0 -91 48 -91 56 0 10 19 1 60 -26z
m-286 -201 c36 -19 66 -37 66 -42 0 -4 -32 9 -72 29 -67 34 -178 125 -178 147
0 5 26 -15 59 -45 32 -30 88 -70 125 -89z m-304 122 c0 -5 -35 -12 -77 -16
-43 -3 -89 -8 -103 -11 -21 -4 -22 -3 -8 6 32 20 188 37 188 21z m576 -79 c1
-48 7 -79 23 -110 12 -23 19 -42 16 -42 -13 0 -45 85 -51 134 -6 48 -2 86 9
86 1 0 3 -30 3 -68z m143 15 c59 -35 105 -85 109 -119 10 -92 10 -93 -28 -90
-52 5 -126 49 -156 94 -26 37 -48 131 -37 151 8 13 53 -1 112 -36z m-191 -22
l-1 -50 -4 43 c-3 27 -9 42 -18 42 -8 0 -16 4 -19 9 -3 5 5 8 19 7 23 -1 25
-4 23 -51z m-672 20 c17 -13 16 -14 -13 -4 -34 11 -42 19 -20 19 7 0 22 -7 33
-15z m113 -156 c-25 -16 -33 -9 -13 10 10 10 21 14 23 8 2 -5 -3 -13 -10 -18z
m4148 -46 c-3 -10 -5 -2 -5 17 0 19 2 27 5 18 2 -10 2 -26 0 -35z m-3462 -57
c6 -4 1 -4 -10 2 -11 6 -31 23 -45 39 l-25 28 35 -30 c19 -16 40 -34 45 -39z
m26 37 c13 -16 12 -17 -3 -4 -10 7 -18 15 -18 17 0 8 8 3 21 -13z m-788 -20
c-13 -2 -33 -2 -45 0 -13 2 -3 4 22 4 25 0 35 -2 23 -4z m4214 -35 c-3 -7 -5
-2 -5 12 0 14 2 19 5 13 2 -7 2 -19 0 -25z m-3853 -141 c28 -37 147 -129 361
-282 176 -125 272 -240 288 -345 l5 -35 -47 4 c-25 2 -41 5 -36 7 6 1 22 5 38
8 37 9 35 35 -8 106 -49 80 -153 175 -336 304 -85 60 -177 129 -205 153 -63
52 -113 128 -120 180 -5 36 -4 36 13 -12 10 -28 31 -67 47 -88z m523 118 c33
-9 75 -13 98 -10 33 5 37 4 21 -6 -23 -14 -109 -6 -157 16 -44 19 -34 19 38 0z
m3320 -37 c-3 -7 -5 -2 -5 12 0 14 2 19 5 13 2 -7 2 -19 0 -25z m-3556 -9 c30
-6 86 -26 124 -44 63 -29 66 -32 35 -30 -19 1 -46 5 -59 10 -19 6 -21 9 -10
17 10 6 3 7 -21 4 -24 -4 -29 -3 -15 3 16 7 10 10 -35 20 -144 31 -138 29
-104 30 17 1 55 -4 85 -10z m-527 -34 c-36 -31 -54 -42 -54 -31 0 5 82 66 89
66 2 0 -13 -16 -35 -35z m453 -78 c26 -27 85 -78 131 -114 45 -35 82 -67 82
-69 0 -9 -22 7 -118 84 -106 85 -162 149 -161 183 1 22 2 21 9 -5 5 -16 31
-52 57 -79z m3620 71 c-3 -8 -6 -5 -6 6 -1 11 2 17 5 13 3 -3 4 -12 1 -19z
m-3520 6 c-3 -3 -12 -4 -19 -1 -8 3 -5 6 6 6 11 1 17 -2 13 -5z m-770 -36 c-3
-7 -5 -2 -5 12 0 14 2 19 5 13 2 -7 2 -19 0 -25z m770 -2 c49 -8 104 -21 123
-28 l33 -14 -56 -29 c-30 -16 -54 -33 -51 -36 2 -4 17 -1 32 7 15 7 31 14 35
14 5 0 22 10 39 21 26 19 33 20 56 9 l27 -13 -34 -14 c-18 -8 -56 -18 -84 -24
-68 -12 -73 -22 -12 -19 28 2 69 2 93 1 l43 -1 -36 -39 -37 -39 -74 50 c-41
28 -74 56 -74 62 0 7 -27 29 -59 50 -33 20 -62 44 -65 52 -3 8 -2 13 3 10 4
-3 49 -12 98 -20z m3510 -18 c-3 -8 -6 -5 -6 6 -1 11 2 17 5 13 3 -3 4 -12 1
-19z m-4238 -112 c127 -433 401 -817 798 -1119 158 -120 406 -249 610 -316
393 -131 840 -145 1253 -41 405 102 804 342 1072 645 88 98 221 284 275 383
19 34 37 62 40 62 8 0 -65 -129 -119 -210 -203 -303 -475 -545 -810 -719 -322
-167 -635 -241 -1023 -241 -213 0 -360 17 -536 61 -623 157 -1159 592 -1443
1172 -61 123 -156 383 -156 424 0 28 6 12 39 -101z m970 90 c21 -14 85 -70
142 -125 57 -56 109 -101 115 -101 5 0 19 -6 29 -14 18 -13 17 -14 -10 -9 -17
3 -36 10 -42 16 -9 6 -13 5 -13 -4 -1 -8 -7 0 -15 18 -15 36 -158 177 -211
209 -38 23 -51 34 -40 34 3 0 24 -11 45 -24z m-449 -117 c38 -28 70 -53 70
-56 0 -8 -61 34 -123 84 -51 41 -19 24 53 -28z m931 -8 c34 -35 38 -74 8 -95
-32 -22 -77 -2 -96 41 -12 31 -12 38 2 59 21 32 50 30 86 -5z m-410 4 c0 -6
-9 -12 -21 -15 -12 -3 -21 -9 -20 -15 2 -11 -71 -38 -79 -29 -11 10 49 54 75
54 13 0 24 5 24 11 0 6 5 9 11 7 6 -2 10 -8 10 -13z m3143 -39 c-9 -26 -18
-45 -20 -43 -2 2 3 25 12 51 9 26 18 45 20 43 2 -2 -3 -25 -12 -51z m-3096
-32 c12 -8 22 -24 22 -34 0 -28 21 -36 37 -15 12 18 13 18 13 -1 0 -22 -36
-44 -70 -44 -12 0 -20 -7 -21 -17 0 -14 -2 -13 -9 5 -5 12 -15 22 -23 22 -17
0 -73 58 -64 67 4 3 7 1 7 -5 0 -6 7 -9 16 -5 8 3 13 11 10 19 -5 12 11 20 44
23 9 0 26 -6 38 -15z m-398 -40 c0 -2 -13 2 -30 11 -16 9 -30 18 -30 21 0 2
14 -2 30 -11 17 -9 30 -18 30 -21z m230 -6 c0 -6 -6 -5 -15 2 -8 7 -15 14 -15
16 0 2 7 1 15 -2 8 -4 15 -11 15 -16z m390 -33 c17 -20 4 -68 -27 -96 l-25
-24 21 35 c24 39 27 70 9 88 -8 8 -8 12 -1 12 6 0 16 -7 23 -15z m2791 -102
c-11 -21 -20 -35 -21 -31 0 12 33 78 38 74 2 -2 -6 -21 -17 -43z m-2991 12
c14 -19 14 -19 -2 -6 -10 7 -18 18 -18 24 0 6 1 8 3 6 1 -2 9 -13 17 -24z
m130 -51 c0 -2 -7 -4 -15 -4 -8 0 -15 4 -15 10 0 5 7 7 15 4 8 -4 15 -8 15
-10z m85 -26 c1 -1 14 -25 28 -53 18 -35 26 -44 27 -29 0 25 35 72 45 63 7 -8
-37 -139 -47 -139 -4 0 -12 8 -17 18 -5 10 -36 35 -68 57 -32 22 -63 46 -69
55 -15 18 -8 38 14 42 16 4 80 -7 87 -14z m-213 -310 c-6 -6 -7 0 -4 19 5 21
7 23 10 9 2 -10 0 -22 -6 -28z m1708 -612 c0 -6 -123 -47 -127 -42 -2 2 22 13
54 24 62 22 73 24 73 18z m-153 -52 c-3 -3 -12 -4 -19 -1 -8 3 -5 6 6 6 11 1
17 -2 13 -5z m-57 -15 c-32 -14 -165 -39 -193 -38 -12 1 10 7 48 14 39 7 86
18 105 23 46 13 72 14 40 1z m-232 -46 c-10 -2 -26 -2 -35 0 -10 3 -2 5 17 5
19 0 27 -2 18 -5z"/>
<path d="M1325 2950 c10 -11 20 -20 23 -20 3 0 -3 9 -13 20 -10 11 -20 20 -23
20 -3 0 3 -9 13 -20z"/>
<path d="M1724 2715 c18 -23 26 -44 23 -56 -4 -17 -3 -18 9 -8 8 6 14 24 14
38 0 22 -8 31 -37 45 l-36 17 27 -36z"/>
<path d="M1655 2496 c12 -24 25 -71 29 -105 5 -46 11 -61 23 -61 28 0 10 102
-27 161 -40 61 -55 64 -25 5z"/>
<path d="M1840 2517 c0 -13 -14 -45 -31 -73 -18 -27 -34 -68 -37 -92 -4 -35
-8 -42 -22 -37 -10 3 -20 0 -23 -9 -4 -10 3 -14 29 -14 20 0 43 -7 53 -16 17
-16 18 -15 14 8 -3 14 -11 31 -19 37 -20 16 -17 36 11 85 24 40 45 134 31 134
-3 0 -6 -10 -6 -23z"/>
<path d="M1803 2355 c-3 -9 -3 -18 -1 -21 3 -3 8 4 11 16 6 23 -1 27 -10 5z"/>
<path d="M1830 2050 c-19 -11 -32 -19 -29 -20 11 0 79 30 79 35 0 9 -14 5 -50
-15z"/>
<path d="M2066 2051 c-10 -11 -15 -25 -11 -30 11 -19 23 -12 34 19 11 34 2 39
-23 11z"/>
<path d="M1828 2013 c6 -2 18 -2 25 0 6 3 1 5 -13 5 -14 0 -19 -2 -12 -5z"/>
<path d="M3058 4383 c7 -3 16 -2 19 1 4 3 -2 6 -13 5 -11 0 -14 -3 -6 -6z"/>
<path d="M3108 4373 c7 -3 16 -2 19 1 4 3 -2 6 -13 5 -11 0 -14 -3 -6 -6z"/>
<path d="M3148 4363 c7 -3 16 -2 19 1 4 3 -2 6 -13 5 -11 0 -14 -3 -6 -6z"/>
<path d="M3225 4340 c28 -10 57 -18 65 -18 8 0 -7 8 -35 18 -27 10 -57 18 -65
18 -8 0 8 -8 35 -18z"/>
<path d="M3440 4260 c19 -11 40 -19 45 -19 6 0 -6 8 -25 19 -19 11 -39 19 -45
19 -5 0 6 -8 25 -19z"/>
<path d="M3565 4203 c6 -6 33 -23 60 -38 28 -16 46 -24 40 -18 -5 6 -32 23
-60 38 -27 16 -45 24 -40 18z"/>
<path d="M1390 2426 c0 -2 8 -10 18 -17 15 -13 16 -12 3 4 -13 16 -21 21 -21
13z"/>
</g>
</svg>
